<svg xmlns="http://www.w3.org/2000/svg" xmlns:xlink="http://www.w3.org/1999/xlink" width="45" height="45" viewBox="0 0 45 45">
  <defs>
    <clipPath id="clip-path">
      <rect id="Rectángulo_5069" data-name="Rectángulo 5069" width="32.506" height="32.501" fill="none"/>
    </clipPath>
  </defs>
  <g id="Grupo_845793" data-name="Grupo 845793" transform="translate(-145.5 -115)">
    <path id="Trazado_886" data-name="Trazado 886" d="M0,0H45V45H0Z" transform="translate(145.5 115)" fill="#ffd400"/>
    <g id="Grupo_845758" data-name="Grupo 845758" transform="translate(151.993 121.499)">
      <g id="Grupo_845757" data-name="Grupo 845757" clip-path="url(#clip-path)">
        <path id="Trazado_571432" data-name="Trazado 571432" d="M107.234,122.052a.431.431,0,0,1,.164-.27,2.52,2.52,0,0,0,1.064-2.125c-.005-.889.01-1.777,0-2.666a3.264,3.264,0,0,1,.8-2.247c.35-.41.723-.8,1.088-1.2a9.46,9.46,0,0,0,.81-11.849,6.331,6.331,0,0,0-.57-.72.424.424,0,0,0-.627-.023.433.433,0,0,0-.1.6,3.349,3.349,0,0,0,.21.278,8.422,8.422,0,0,1,.906,9.165A10.683,10.683,0,0,1,108.9,113.7a4.9,4.9,0,0,0-1.248,2.07c-.038.139-.072.279-.1.4h-2.465v-5.837c.307,0,.6.022.893-.006a3.2,3.2,0,0,0,.924-.177,1.881,1.881,0,0,0,1.039-2.242,1.923,1.923,0,0,0-2.059-1.383,1.878,1.878,0,0,0-1.754,1.772c-.016.346,0,.693,0,1.061h-1.684c0-.327.01-.642,0-.957a1.946,1.946,0,1,0-3.877.282,1.881,1.881,0,0,0,1.755,1.635c.377.023.757,0,1.154,0V116.2c-.8,0-1.577,0-2.357-.008-.061,0-.156-.1-.174-.172a5.323,5.323,0,0,0-1.321-2.172c-.6-.671-1.179-1.354-1.763-2.035a.476.476,0,1,0-.769.558,4.538,4.538,0,0,0,.39.539c.589.664,1.2,1.313,1.782,1.98a3.119,3.119,0,0,1,.839,2.2c-.021.888-.008,1.777,0,2.666a2.362,2.362,0,0,0,.964,1.944.623.623,0,0,1,.274.578,2.269,2.269,0,0,0,1.036,2.057,6.443,6.443,0,0,0,1.034.452h3.746c1.588-.553,1.968-1.053,2.089-2.726m-2.156-13.735a.945.945,0,0,1,1-.853.965.965,0,0,1,.971.927.928.928,0,0,1-.874.975c-.355.023-.712,0-1.1,0,0-.383-.018-.72,0-1.054m-2.611,2.043H104.1v5.819h-1.631Zm-1-.99c-.391,0-.749.02-1.1,0a.93.93,0,0,1-.865-.954.964.964,0,0,1,.923-.944.938.938,0,0,1,1.039.768,10.271,10.271,0,0,1,.008,1.134m-2.4,10.321H99.4q2.2,0,4.41,0a1.287,1.287,0,0,0,.345-.03.466.466,0,0,0-.078-.912c-.178-.018-.359-.008-.539-.008H99.059v-1.579h8.422v1.579c-.342,0-.687,0-1.032,0-.378,0-.593.168-.6.457s.216.49.6.494c.337,0,.674,0,1.007,0a1.469,1.469,0,0,1-1.5,1.589c-.941.014-1.882,0-2.824,0-.846,0-1.692.01-2.538,0a1.515,1.515,0,0,1-1.527-1.588m5.853,4.118c-1.1.048-2.2.041-3.3,0a1.384,1.384,0,0,1-1.3-1.571h5.914a1.358,1.358,0,0,1-1.309,1.571" transform="translate(-86.922 -92.277)"/>
        <path id="Trazado_571433" data-name="Trazado 571433" d="M.72,181.693c.941-.011,1.882,0,2.823-.006a1.453,1.453,0,0,0,.377-.033.386.386,0,0,0,.321-.471.981.981,0,0,0-.354-.421c-.067-.054-.2-.026-.309-.026-.962,0-1.925.007-2.887-.005a.781.781,0,0,0-.691.286v.381a.8.8,0,0,0,.72.294" transform="translate(0 -165.403)"/>
        <path id="Trazado_571434" data-name="Trazado 571434" d="M92.664,63.975a9.719,9.719,0,0,0-15.2,7.589,9.883,9.883,0,0,0,.495,3.3.48.48,0,1,0,.909-.287c-.017-.061-.038-.121-.057-.181a8.34,8.34,0,0,1-.129-4.659,8.779,8.779,0,0,1,13.377-5.022,2.224,2.224,0,0,0,.291.191.449.449,0,0,0,.614-.156.436.436,0,0,0-.073-.6,1.541,1.541,0,0,0-.228-.171" transform="translate(-70.895 -56.994)"/>
        <path id="Trazado_571435" data-name="Trazado 571435" d="M186.042,2.082c0,.5,0,.992,0,1.488,0,.374.18.591.467.6s.481-.214.482-.581q.008-1.5,0-3.007c0-.369-.19-.584-.483-.578s-.463.218-.466.595c0,.5,0,.992,0,1.488" transform="translate(-170.264 0)"/>
        <path id="Trazado_571436" data-name="Trazado 571436" d="M336.845,180.794c-.518-.006-1.037,0-1.555,0s-1.058-.005-1.587,0c-.357,0-.553.181-.551.474s.2.47.557.472q1.571.01,3.143,0c.349,0,.556-.195.554-.478s-.209-.464-.561-.469" transform="translate(-304.899 -165.459)"/>
        <path id="Trazado_571437" data-name="Trazado 571437" d="M341.231,180.792c.518,0,1.037,0,1.555,0-.518-.006-1.037,0-1.555,0s-1.058-.005-1.587,0c.529-.007,1.058,0,1.587,0" transform="translate(-310.841 -165.458)"/>
        <path id="Trazado_571438" data-name="Trazado 571438" d="M290.846,281.99a.475.475,0,1,0-.651.686c.3.307.618.606.928.907.446.434.88.882,1.349,1.29a.692.692,0,0,0,.539.116c.133-.031.227-.232.352-.374a2.14,2.14,0,0,0-.249-.418q-1.125-1.112-2.268-2.207" transform="translate(-265.415 -257.926)"/>
        <path id="Trazado_571439" data-name="Trazado 571439" d="M293.009,52.97a.456.456,0,0,0-.571.126c-.747.73-1.5,1.455-2.244,2.186a.469.469,0,0,0-.065.7.479.479,0,0,0,.727-.023q1.128-1.086,2.244-2.186a2.283,2.283,0,0,0,.256-.413,1.716,1.716,0,0,0-.346-.39" transform="translate(-265.406 -48.426)"/>
        <path id="Trazado_571440" data-name="Trazado 571440" d="M57.549,282.451a.717.717,0,0,0-.565.117c-.767.707-1.509,1.444-2.254,2.175a.477.477,0,1,0,.65.689q1.129-1.086,2.245-2.185a2.353,2.353,0,0,0,.259-.406c-.118-.146-.205-.361-.335-.389" transform="translate(-49.911 -258.485)"/>
        <path id="Trazado_571441" data-name="Trazado 571441" d="M55.577,54.655c.469.456.925.926,1.416,1.357a.688.688,0,0,0,.537.119c.135-.031.23-.233.356-.374a2.068,2.068,0,0,0-.244-.413q-1.124-1.113-2.266-2.209a.475.475,0,1,0-.659.679c.282.285.573.561.86.84" transform="translate(-49.913 -48.477)"/>
      </g>
    </g>
  </g>
</svg>
