<svg id="Grupo_845771" data-name="Grupo 845771" xmlns="http://www.w3.org/2000/svg" xmlns:xlink="http://www.w3.org/1999/xlink" width="28.938" height="32.501" viewBox="0 0 28.938 32.501">
  <defs>
    <clipPath id="clip-path">
      <rect id="Rectángulo_280632" data-name="Rectángulo 280632" width="28.938" height="32.501" fill="none"/>
    </clipPath>
  </defs>
  <g id="Grupo_845770" data-name="Grupo 845770" clip-path="url(#clip-path)">
    <path id="Trazado_571527" data-name="Trazado 571527" d="M28.933,4.3a1.381,1.381,0,0,0-1.222-1.31c-1.048-.043-2.1-.026-3.15-.016a.454.454,0,0,0-.433.576.518.518,0,0,0,.568.367q1.334,0,2.668,0c.441,0,.606.162.606.589q0,10.362,0,20.724c0,.432-.167.6-.6.6-2.615,0-5.23,0-7.844.006-.2,0-.247-.053-.245-.245.012-.825.014-1.65,0-2.475,0-.227.062-.274.283-.273,1.929.009,3.858.005,5.787,0a1.311,1.311,0,0,0,.288-.01.472.472,0,0,0-.006-.933,1.416,1.416,0,0,0-.288-.009c-1.918,0-3.837-.006-5.755.006-.259,0-.319-.072-.308-.313a12.639,12.639,0,0,0,0-1.3c-.015-.26.077-.3.318-.3C21.53,20,23.459,20,25.388,20a.729.729,0,0,0,.406-.065.446.446,0,0,0,.234-.511.48.48,0,0,0-.522-.378c-.8,0-1.6,0-2.417,0a8.382,8.382,0,0,0,.053-1.629c0-.213.04-.288.275-.282.664.018,1.329.007,1.993.006.4,0,.628-.172.632-.471s-.226-.479-.622-.48c-.675,0-1.35-.008-2.025,0-.192,0-.259-.035-.251-.239.017-.475.015-.952,0-1.428-.006-.191.038-.251.244-.247.686.014,1.372.007,2.057,0,.372,0,.6-.182.6-.474s-.223-.476-.593-.477c-.7,0-1.393-.006-2.09,0-.166,0-.219-.041-.215-.209.012-.486.015-.973,0-1.46-.006-.2.047-.248.247-.244.685.013,1.372.007,2.057,0,.37,0,.594-.185.594-.476s-.224-.473-.6-.475c-.686,0-1.372-.009-2.057,0-.2,0-.251-.051-.245-.245.015-.486.013-.973,0-1.46,0-.171.052-.21.216-.208.7.008,1.393.005,2.09,0,.369,0,.593-.187.591-.479s-.224-.471-.6-.472q-1.286,0-2.572,0c-.545,0-.687.138-.688.67q0,5.03,0,10.061c0,.558-.137.7-.694.7H7.473c-.589,0-.721-.128-.721-.7V1.65c0-.57.132-.7.724-.7H21.461c.064,0,.129,0,.193,0a.484.484,0,0,1,.53.508c0,.074,0,.148,0,.222q0,2.206,0,4.411c0,.4.268.648.592.556.295-.083.375-.3.374-.588-.006-1.492,0-2.983,0-4.475A1.451,1.451,0,0,0,21.533,0H7.419A1.456,1.456,0,0,0,5.787,1.6q0,8.394,0,16.789A1.456,1.456,0,0,0,7.417,20q5.3,0,10.609,0c.219,0,.308.022.307.281-.011,3.554-.007,7.109-.008,10.664,0,.45-.164.612-.617.613H1.57c-.435,0-.6-.166-.6-.592q0-11.79,0-23.581c0-.432.161-.6.6-.6.836,0,1.672,0,2.508,0,.409,0,.625-.168.626-.475s-.208-.474-.62-.475q-1.238,0-2.475,0A1.446,1.446,0,0,0,0,7.424Q0,19.151,0,30.878A1.461,1.461,0,0,0,1.643,32.5h16.01a1.449,1.449,0,0,0,1.632-1.6c0-.237.045-.316.307-.314,1.661.013,3.322.011,4.983,0a1.431,1.431,0,0,0,1.467-1.446c0-.3.006-.593,0-.889a.482.482,0,1,0-.961.008c-.006.275,0,.55,0,.825a.486.486,0,0,1-.55.55c-1.672,0-3.344,0-5.015.006-.189,0-.226-.06-.224-.232.009-.783.016-1.566,0-2.348-.006-.25.075-.286.3-.286,2.561.008,5.123.005,7.684.005a1.466,1.466,0,0,0,1.666-1.633q0-10.283,0-20.565c0-.1,0-.191,0-.286" transform="translate(0 0)"/>
    <path id="Trazado_571528" data-name="Trazado 571528" d="M60.6,32h6.074q3.085,0,6.17,0c.4,0,.6-.158.6-.5.008-.666.012-1.333-.011-2a3.13,3.13,0,0,0-.328-1.28,3.392,3.392,0,0,0-2.052-1.614A14.1,14.1,0,0,1,69.71,26.1a1.261,1.261,0,0,1-.683-.679.3.3,0,0,1,.115-.4,3.865,3.865,0,0,0,1.52-2.419,10.045,10.045,0,0,0,.074-1.9,7.154,7.154,0,0,0-.116-1.735,4.041,4.041,0,0,0-7.916.425,16.614,16.614,0,0,0-.027,2.725,3.716,3.716,0,0,0,1.517,2.852.384.384,0,0,1,.11.583,1.754,1.754,0,0,1-1.019.722c-.534.212-1.093.361-1.61.619a2.885,2.885,0,0,0-1.681,2.314,18.749,18.749,0,0,0-.047,2.154c-.009.487.153.638.653.638m3.05-9.89a9.946,9.946,0,0,1,.064-2.875,3.068,3.068,0,0,1,6.052.6c.016.359,0,.719,0,1.078a7.317,7.317,0,0,1-.077,1.611,3.07,3.07,0,0,1-3.239,2.365,3.012,3.012,0,0,1-2.8-2.778M60.9,30.762c.035-.473-.019-.95.043-1.424a1.982,1.982,0,0,1,1.306-1.664c.374-.154.756-.29,1.137-.426a2.688,2.688,0,0,0,1.886-1.525c.046-.127.13-.088.206-.065a4,4,0,0,0,2.43,0c.1-.031.168-.035.217.1a2.375,2.375,0,0,0,1.518,1.357c.456.178.92.338,1.378.511a2.094,2.094,0,0,1,1.455,2.1c.006.359-.011.72.009,1.078.012.216-.064.256-.267.255-1.853-.007-3.706,0-5.559,0-1.821,0-3.641,0-5.462.006-.234,0-.316-.045-.3-.289" transform="translate(-52.228 -13.906)"/>
  </g>
</svg>
