<svg xmlns="http://www.w3.org/2000/svg" width="45" height="45" viewBox="0 0 45 45">
  <g id="Grupo_847761" data-name="Grupo 847761" transform="translate(-146 -115)">
    <rect id="Rectángulo_280685" data-name="Rectángulo 280685" width="45" height="45" transform="translate(146 115)" fill="#449c24"/>
    <g id="file_2822676" transform="translate(150 120)">
      <path id="Trazado_572047" data-name="Trazado 572047" d="M35.24,7.07,28.468.3A1.016,1.016,0,0,0,27.75,0H12.174A3.051,3.051,0,0,0,9.126,3.047v13.4a9.142,9.142,0,0,0,1.016,18.228H32.49a3.051,3.051,0,0,0,3.047-3.047V7.788a1.016,1.016,0,0,0-.3-.718Zm-6.475-3.6,2.207,2.207,1.1,1.1h-3.3ZM3.032,25.531a7.111,7.111,0,1,1,7.111,7.111A7.119,7.119,0,0,1,3.032,25.531ZM32.49,32.641H15.881a9.138,9.138,0,0,0,3.346-6.095H29.781a1.016,1.016,0,0,0,0-2.032H19.228a9.086,9.086,0,0,0-1.488-4.063H29.781a1.016,1.016,0,0,0,0-2.032h-13.9a9.1,9.1,0,0,0-4.723-1.975V3.047a1.017,1.017,0,0,1,1.016-1.016h14.56V7.788A1.016,1.016,0,0,0,27.75,8.8h5.756V31.625A1.017,1.017,0,0,1,32.49,32.641Z" transform="translate(0 0)" fill="#fff"/>
      <path id="Trazado_572048" data-name="Trazado 572048" d="M206.914,182h-14.9a1.016,1.016,0,0,0,0,2.032h14.9a1.016,1.016,0,0,0,0-2.032Z" transform="translate(-177.133 -169.675)" fill="#fff"/>
      <path id="Trazado_572049" data-name="Trazado 572049" d="M78.506,335.3a1.016,1.016,0,0,0-1.437,0l-4.022,4.022-1.313-1.313a1.016,1.016,0,0,0-1.437,1.437l2.032,2.032a1.016,1.016,0,0,0,1.437,0l4.74-4.74A1.016,1.016,0,0,0,78.506,335.3Z" transform="translate(-64.327 -312.315)" fill="#fff"/>
    </g>
  </g>
</svg>
