<svg id="Grupo_845780" data-name="Grupo 845780" xmlns="http://www.w3.org/2000/svg" xmlns:xlink="http://www.w3.org/1999/xlink" width="32.513" height="32.501" viewBox="0 0 32.513 32.501">
  <defs>
    <clipPath id="clip-path">
      <rect id="Rectángulo_280642" data-name="Rectángulo 280642" width="32.513" height="32.501" fill="none"/>
    </clipPath>
  </defs>
  <g id="Grupo_845779" data-name="Grupo 845779" clip-path="url(#clip-path)">
    <path id="Trazado_571559" data-name="Trazado 571559" d="M75.842,7.848c.013.406,0,.812,0,1.218a1.633,1.633,0,0,0,1.771,1.766q2.081,0,4.162,0c1.444,0,2.888.006,4.331,0a1.618,1.618,0,0,0,1.648-1.65c0-.271,0-.541,0-.812,0-.782,0-.8-.772-.777-.29.008-.316-.1-.315-.342q.012-2.758,0-5.516A1.625,1.625,0,0,0,84.939,0q-3.13,0-6.26,0a1.628,1.628,0,0,0-1.75,1.753c0,1.658,0,3.316,0,4.975,0,.278.125.646-.055.807-.152.137-.514.06-.781.041-.229-.017-.255.08-.249.271m2.171-6.111c0-.46.2-.652.662-.652q3.127,0,6.255,0c.464,0,.662.194.663.652,0,1.86,0,3.719.007,5.579,0,.228-.067.274-.281.273-1.172-.01-2.344,0-3.516,0s-2.344-.005-3.516,0c-.213,0-.282-.044-.281-.272.01-1.86,0-3.719.007-5.579M76.927,8.773c.044-.187.178-.1.267-.1,1.183-.006,2.366,0,3.549,0h1.081c1.51,0,3.019.006,4.529-.006.257,0,.342.053.332.325-.023.6-.17.764-.763.764H77.676c-.613,0-.891-.371-.749-.976" transform="translate(-65.554 0)"/>
    <path id="Trazado_571560" data-name="Trazado 571560" d="M173.3,81.157a5.155,5.155,0,0,0,4.11-5.142c-.011-.129-.014-.2-.178-.2a5.006,5.006,0,0,0-1.958.3,6.153,6.153,0,0,0-2.752,2.42c-.056-.092-.093-.16-.137-.223a5.058,5.058,0,0,0-4.447-2.494c-.205.007-.283.035-.285.269a5.166,5.166,0,0,0,3.616,4.969c.238.074.589.006.694.226s.016.531.033.8c.012.19-.047.246-.24.243-.744-.011-1.489,0-2.233,0-.783,0-.771,0-.787.778,0,.253.059.357.312.3s.318.063.343.3c.086.807.207,1.61.3,2.416a1.651,1.651,0,0,0,1.763,1.618q1.083,0,2.166,0a1.654,1.654,0,0,0,1.767-1.614c.093-.84.212-1.677.316-2.516.015-.117.015-.2.183-.209.444-.021.444-.034.444-.5a2.865,2.865,0,0,1,0-.338c.022-.189-.043-.248-.238-.245q-1.083.018-2.166,0c-.277,0-.656.129-.8-.057s-.032-.538-.047-.818c-.01-.174.029-.253.228-.28m-.121-1.3a4.4,4.4,0,0,1,3.044-2.928.489.489,0,0,1-.035.361,4.274,4.274,0,0,1-2.806,2.753c-.2.065-.281.05-.2-.186M168.851,77.2c-.054-.165-.064-.254.169-.2a4.277,4.277,0,0,1,2.906,3.139,4.412,4.412,0,0,1-3.074-2.936m5.545,6.2c.195,0,.24.038.21.243-.116.8-.209,1.609-.309,2.414-.052.425-.233.594-.663.6q-1.1,0-2.2,0c-.431,0-.609-.17-.662-.6-.1-.816-.2-1.633-.314-2.447-.024-.171.014-.211.182-.209.643.009,1.285,0,1.928,0,.609,0,1.218.007,1.827,0" transform="translate(-144.914 -65.524)"/>
    <path id="Trazado_571561" data-name="Trazado 571561" d="M46.548,207.576c-2.82.015-5.64.009-8.46.009H29.765a2.526,2.526,0,0,0-.471.027,1.622,1.622,0,0,0,.279,3.218c1.534.01,3.068.007,4.6,0a.553.553,0,0,1,.461.2,2.533,2.533,0,0,0,1.909.877c2.583.013,5.166.018,7.749,0a2.663,2.663,0,0,0,2.565-2.189,14.521,14.521,0,0,0,.061-1.755c.02-.291-.046-.392-.37-.39m-16.971,2.17a.537.537,0,0,1,.007-1.074c1.387-.008,2.774,0,4.161-.008.168,0,.174.079.173.206a3.459,3.459,0,0,0,.057.88c-1.491,0-2.944,0-4.4,0m14.408,1.088H36.811a1.7,1.7,0,0,1-1.818-2c.019-.239.164-.166.278-.166,1.286,0,2.572,0,3.858,0h1.286c1.7,0,3.406.006,5.11-.006.251,0,.316.055.313.31a1.665,1.665,0,0,1-1.852,1.862" transform="translate(-24.166 -179.42)"/>
    <path id="Trazado_571562" data-name="Trazado 571562" d="M2.76,99.4a1.584,1.584,0,0,0,1.3-.729,1.8,1.8,0,0,0,.267-1.2c-.014-.194.051-.245.241-.241.665.012,1.331,0,2,0,.469,0,.469,0,.474.475A1.626,1.626,0,0,0,8.719,99.4c.35,0,.7.007,1.049,0a1.609,1.609,0,0,0,1.6-1.591q.02-2.2,0-4.4a1.608,1.608,0,0,0-1.6-1.589c-.372-.008-.744-.007-1.116,0a1.6,1.6,0,0,0-1.319.7,1.781,1.781,0,0,0-.285,1.225c.015.193-.051.245-.241.241-.665-.012-1.331,0-2,0-.469,0-.469,0-.474-.475a1.626,1.626,0,0,0-1.71-1.692c-.293,0-.587,0-.88,0A1.629,1.629,0,0,0,0,93.549c0,.688,0,1.376,0,2.064,0,.722-.007,1.444,0,2.165A1.618,1.618,0,0,0,1.609,99.4c.383.009.767.012,1.15,0m5.368-5.9a.537.537,0,0,1,.584-.592c.326-.008.653-.007.98,0a.546.546,0,0,1,.6.613c.006.709,0,1.419,0,2.129,0,.676,0,1.351,0,2.027,0,.441-.2.639-.637.645-.3,0-.608.005-.912,0a.545.545,0,0,1-.614-.6q-.008-2.112,0-4.223M5.182,95.071c.541,0,1.083.009,1.624,0,.192,0,.24.053.242.242.01.845.016.845-.819.845H5.687c-.383,0-.767-.008-1.15,0-.164,0-.2-.047-.208-.208-.033-.88-.038-.879.852-.879M1.67,98.319a.539.539,0,0,1-.583-.594q-.008-2.112,0-4.223a.537.537,0,0,1,.581-.595c.326-.008.653-.007.98,0a.546.546,0,0,1,.6.611c.006.7,0,1.4,0,2.095s0,1.374,0,2.061c0,.443-.2.641-.634.647-.315,0-.631.007-.946,0" transform="translate(0 -79.363)"/>
    <path id="Trazado_571563" data-name="Trazado 571563" d="M141.673,155.28a1.538,1.538,0,0,1-.578-1.4,1.527,1.527,0,0,0-.471-1.29c-.356-.362-.71-.726-1.078-1.076a1.61,1.61,0,0,0-2.308.009q-.863.836-1.7,1.7a1.608,1.608,0,0,0,0,2.308c.272.286.57.548.833.842a1.927,1.927,0,0,0,1.736.719,1.024,1.024,0,0,1,1.051.426c1.3,1.329,2.625,2.639,3.943,3.954a1.645,1.645,0,0,0,1.824.447,1.68,1.68,0,0,0,.585-2.815c-1.267-1.285-2.534-2.572-3.836-3.822m3.107,5.479a.584.584,0,0,1-.771.066,2.278,2.278,0,0,1-.273-.252q-2.19-2.189-4.376-4.383a.5.5,0,0,0-.47-.189,2.2,2.2,0,0,1-2.329-.975c-.072-.1-.177-.174-.259-.267A.523.523,0,0,1,136.3,154q.85-.873,1.723-1.723a.513.513,0,0,1,.757,0c.368.35.721.714,1.079,1.075a.568.568,0,0,1,.165.429c0,.2,0,.406,0,.71-.144.457.142.812.521,1.182,1.374,1.338,2.719,2.705,4.075,4.062a2.039,2.039,0,0,1,.229.248.586.586,0,0,1-.064.772" transform="translate(-116.731 -130.544)"/>
    <path id="Trazado_571564" data-name="Trazado 571564" d="M104.508,92.186a4.332,4.332,0,1,0-4.315,4.334,4.337,4.337,0,0,0,4.315-4.334m-4.331,3.251a3.249,3.249,0,1,1,3.248-3.286,3.256,3.256,0,0,1-3.248,3.286" transform="translate(-82.844 -75.938)"/>
    <path id="Trazado_571565" data-name="Trazado 571565" d="M14.536,26.89c.277.12.57.2.881.313.127-.042.127-.185.166-.287a14.1,14.1,0,0,1,6.764-7.545c.215-.114.567-.144.611-.358.04-.2-.185-.441-.262-.674-.083-.251-.193-.25-.414-.144a15.292,15.292,0,0,0-5.21,4.051A14.967,14.967,0,0,0,14.548,26.6c-.031.083-.179.215-.012.287" transform="translate(-12.496 -15.669)"/>
    <path id="Trazado_571566" data-name="Trazado 571566" d="M18.84,160.2c.187-.159.155-.257,0-.42a14.12,14.12,0,0,1-2.878-4.339c-.106-.246-.123-.631-.332-.7s-.5.152-.755.223c-.184.051-.218.117-.147.3a15.362,15.362,0,0,0,3.56,5.5c.193-.2.361-.4.558-.567" transform="translate(-12.696 -133.736)"/>
    <path id="Trazado_571567" data-name="Trazado 571567" d="M162.72,19.463a13.656,13.656,0,0,1,3.619,2.451c.394.367.392.368.776-.01.12-.118.245-.233.378-.358-.073-.079-.13-.145-.192-.206a15.018,15.018,0,0,0-3.658-2.637c-.741-.382-.729-.382-1.077.369-.1.22-.046.3.153.39" transform="translate(-140.473 -15.948)"/>
    <path id="Trazado_571568" data-name="Trazado 571568" d="M223.241,37.275c.277.121.553.246.834.372.139.033.127-.1.156-.167.265-.581.519-1.167.777-1.751.369-.836.368-.831-.5-1.134-.132-.046-.172-.023-.223.093-.351.8-.708,1.6-1.061,2.4-.026.059-.115.133.014.189" transform="translate(-192.901 -29.883)"/>
    <path id="Trazado_571569" data-name="Trazado 571569" d="M203.226,37.211c.289.146.589.273.9.416.089-.031.1-.129.134-.2.257-.573.513-1.145.761-1.722.109-.253.387-.556.276-.748s-.5-.255-.754-.391c-.148-.079-.191-.016-.244.106-.347.79-.7,1.578-1.047,2.368-.023.053-.108.134-.028.174" transform="translate(-175.631 -29.845)"/>
    <path id="Trazado_571570" data-name="Trazado 571570" d="M202.309,169.916c-.107.031-.124.115-.164.177-.268.416-.539.83-.8,1.25-.141.225-.484.429-.418.646s.407.361.611.553c.129.12.193.083.287-.037a15.9,15.9,0,0,0,1.278-1.9c.031-.055.115-.141.061-.176-.281-.183-.575-.345-.853-.508" transform="translate(-173.664 -146.868)"/>
    <path id="Trazado_571571" data-name="Trazado 571571" d="M217.439,64.056c.061.02.132.084.173,0,.146-.315.282-.634.431-.97-.017-.058-.073-.087-.135-.114a3.717,3.717,0,0,1-.49-.219c-.259-.159-.382-.106-.5.183-.351.841-.364.835.523,1.125" transform="translate(-187.3 -54.161)" fill="#010101"/>
    <path id="Trazado_571572" data-name="Trazado 571572" d="M196.3,63.3c-.081.154-.038.22.107.268.274.091.553.375.789.286.179-.067.239-.45.351-.693q.049-.107.1-.213c.027-.057.03-.112-.034-.141-.274-.126-.55-.249-.829-.375-.11-.026-.122.063-.153.133-.108.246-.207.5-.332.734" transform="translate(-169.639 -53.956)" fill="#010101"/>
    <path id="Trazado_571573" data-name="Trazado 571573" d="M100.4,163.718c-.57,0-.57,0-.57.58,0,.5,0,.5.513.5.57,0,.57,0,.57-.58,0-.5,0-.5-.513-.5" transform="translate(-86.29 -141.511)"/>
    <path id="Trazado_571574" data-name="Trazado 571574" d="M72.966,168.246c0-.535,0-.535-.549-.535s-.534,0-.535.515c0,.568,0,.568.549.568s.535,0,.535-.549" transform="translate(-62.133 -144.962)"/>
    <path id="Trazado_571575" data-name="Trazado 571575" d="M115.8,172.2c0,.585,0,.585.566.585.517,0,.517,0,.517-.5,0-.585,0-.585-.6-.585-.483,0-.483,0-.483.5" transform="translate(-100.094 -148.413)"/>
    <path id="Trazado_571576" data-name="Trazado 571576" d="M87.854,176.232c0,.549,0,.549.534.549s.549,0,.549-.535,0-.549-.535-.549-.548,0-.548.535" transform="translate(-75.937 -151.865)"/>
    <path id="Trazado_571577" data-name="Trazado 571577" d="M99.831,188.205c0,.553,0,.553.564.553.519,0,.519,0,.519-.53,0-.553,0-.553-.564-.553-.519,0-.519,0-.519.53" transform="translate(-86.29 -162.218)"/>
    <path id="Trazado_571578" data-name="Trazado 571578" d="M76.416,192.751c.543,0,.543,0,.543-.541s0-.543-.54-.543-.543,0-.543.541,0,.543.54.543" transform="translate(-65.584 -165.67)"/>
    <path id="Trazado_571579" data-name="Trazado 571579" d="M123.787,192.209c0,.543,0,.543.54.543s.543,0,.543-.54,0-.543-.54-.543-.543,0-.543.541" transform="translate(-106.996 -165.67)"/>
    <path id="Trazado_571580" data-name="Trazado 571580" d="M103.807,19.355a1.072,1.072,0,0,0,1.663.919c.6-.371,1.191-.768,1.768-1.18a1.055,1.055,0,0,0,.011-1.752c-.583-.42-1.182-.823-1.8-1.2a1.069,1.069,0,0,0-1.645.913c-.011.383,0,.766,0,1.149s-.008.766,0,1.149m1.091-2.287,1.72,1.143-1.72,1.151Z" transform="translate(-89.722 -13.807)"/>
    <path id="Trazado_571581" data-name="Trazado 571581" d="M115.961,104.147c.038-.329-.071-.411-.4-.4-.692.029-.753.015-.678.7a2.139,2.139,0,0,1-.9,2.146c-.211.154-.537.358-.516.579s.351.381.523.588c.145.176.235.129.367-.013a7.4,7.4,0,0,1,.765-.762,1.81,1.81,0,0,0,.826-2,7.407,7.407,0,0,1,.007-.843" transform="translate(-98.081 -89.675)"/>
  </g>
</svg>
