<svg xmlns="http://www.w3.org/2000/svg" xmlns:xlink="http://www.w3.org/1999/xlink" width="277.038" height="46.758" viewBox="0 0 277.038 46.758">
  <defs>
    <clipPath id="clip-path">
      <rect id="Rect치ngulo_280673" data-name="Rect치ngulo 280673" width="277.038" height="46.758" fill="none"/>
    </clipPath>
  </defs>
  <g id="Grupo_845789" data-name="Grupo 845789" transform="translate(0 0)">
    <g id="Grupo_845789-2" data-name="Grupo 845789" transform="translate(0 0)" clip-path="url(#clip-path)">
      <path id="Trazado_571591" data-name="Trazado 571591" d="M148.256,12.125A6.483,6.483,0,0,1,145.1,11.4a4.854,4.854,0,0,1-2.017-2.05,6.6,6.6,0,0,1-.7-3.111,6.558,6.558,0,0,1,.7-3.1A4.867,4.867,0,0,1,145.1,1.1a6.488,6.488,0,0,1,3.151-.721,6.931,6.931,0,0,1,2.187.348,4.472,4.472,0,0,1,1.7.964l-.794,1.993a5.186,5.186,0,0,0-1.45-.835,4.51,4.51,0,0,0-1.547-.267,3.084,3.084,0,0,0-2.455.956,3.988,3.988,0,0,0-.834,2.706,4.013,4.013,0,0,0,.834,2.722,3.083,3.083,0,0,0,2.455.956,4.5,4.5,0,0,0,1.547-.267,5.172,5.172,0,0,0,1.45-.834l.794,1.993a4.676,4.676,0,0,1-1.7.956,6.78,6.78,0,0,1-2.187.357" transform="translate(-75.156 -0.2)" fill="#459c23"/>
      <path id="Trazado_571592" data-name="Trazado 571592" d="M169.489,16a5.394,5.394,0,0,1-2.422-.5,3.6,3.6,0,0,1-1.555-1.434,4.313,4.313,0,0,1-.543-2.211,4.23,4.23,0,0,1,.527-2.147,3.892,3.892,0,0,1,1.45-1.45,4.094,4.094,0,0,1,2.09-.535,3.934,3.934,0,0,1,2.025.494,3.332,3.332,0,0,1,1.3,1.41,4.7,4.7,0,0,1,.462,2.147v.616h-5.832V11.123h4.066l-.259.227a2.31,2.31,0,0,0-.429-1.507,1.5,1.5,0,0,0-1.223-.518,1.822,1.822,0,0,0-1.02.275,1.752,1.752,0,0,0-.648.8,3.153,3.153,0,0,0-.227,1.256v.129a3.2,3.2,0,0,0,.251,1.361,1.6,1.6,0,0,0,.77.786,2.878,2.878,0,0,0,1.264.251,4.646,4.646,0,0,0,1.312-.195,3.675,3.675,0,0,0,1.2-.6l.648,1.636a4.928,4.928,0,0,1-1.475.7,5.915,5.915,0,0,1-1.733.267" transform="translate(-87.072 -4.075)" fill="#459c23"/>
      <path id="Trazado_571593" data-name="Trazado 571593" d="M184.321,15.838V7.9h2.4V9.39h-.178a2.6,2.6,0,0,1,1.1-1.239,3.283,3.283,0,0,1,1.669-.429,3.039,3.039,0,0,1,1.58.365,2.243,2.243,0,0,1,.916,1.11,4.96,4.96,0,0,1,.308,1.879v4.763h-2.447V11.172a2.552,2.552,0,0,0-.129-.891.965.965,0,0,0-.4-.5,1.277,1.277,0,0,0-.672-.162,1.772,1.772,0,0,0-.9.219,1.508,1.508,0,0,0-.592.616,2,2,0,0,0-.211.948v4.44Z" transform="translate(-97.287 -4.075)" fill="#459c23"/>
      <path id="Trazado_571594" data-name="Trazado 571594" d="M207.283,13.573a3.433,3.433,0,0,1-2.52-.818,3.286,3.286,0,0,1-.818-2.422V7.271h-1.507v-1.8h1.507V3.123h2.447V5.472h2.333v1.8h-2.333v2.965a1.447,1.447,0,0,0,.308,1.013,1.315,1.315,0,0,0,1,.332,2.646,2.646,0,0,0,.438-.041,5.01,5.01,0,0,0,.535-.121l.34,1.782a2.817,2.817,0,0,1-.8.276,4.68,4.68,0,0,1-.932.1" transform="translate(-106.849 -1.649)" fill="#459c23"/>
      <path id="Trazado_571595" data-name="Trazado 571595" d="M217.982,15.784V7.845h2.4V9.773h-.162a2.426,2.426,0,0,1,.851-1.491,3.146,3.146,0,0,1,1.758-.6l.68-.065.146,2.074-1.361.13a2.116,2.116,0,0,0-1.369.535,1.8,1.8,0,0,0-.446,1.312v4.116Z" transform="translate(-115.053 -4.021)" fill="#459c23"/>
      <path id="Trazado_571596" data-name="Trazado 571596" d="M235.234,16a4.637,4.637,0,0,1-2.22-.5,3.6,3.6,0,0,1-1.467-1.434,4.425,4.425,0,0,1-.526-2.212,4.392,4.392,0,0,1,.526-2.2,3.605,3.605,0,0,1,1.467-1.434,4.643,4.643,0,0,1,2.22-.5,4.693,4.693,0,0,1,2.228.5,3.59,3.59,0,0,1,1.474,1.434,4.392,4.392,0,0,1,.527,2.2,4.426,4.426,0,0,1-.527,2.212,3.584,3.584,0,0,1-1.474,1.434,4.687,4.687,0,0,1-2.228.5m0-1.815a1.6,1.6,0,0,0,1.28-.567A2.67,2.67,0,0,0,237,11.853a2.608,2.608,0,0,0-.486-1.742,1.613,1.613,0,0,0-1.28-.559,1.6,1.6,0,0,0-1.264.559,2.611,2.611,0,0,0-.486,1.742,2.673,2.673,0,0,0,.486,1.766,1.587,1.587,0,0,0,1.264.567" transform="translate(-121.936 -4.075)" fill="#459c23"/>
      <rect id="Rect치ngulo_280672" data-name="Rect치ngulo 280672" width="2.512" height="11.423" transform="translate(123.408 0.34)" fill="#459c23"/>
      <path id="Trazado_571597" data-name="Trazado 571597" d="M270.756,15.838V7.9h2.4V9.39h-.178a2.6,2.6,0,0,1,1.1-1.239,3.284,3.284,0,0,1,1.669-.429,3.038,3.038,0,0,1,1.58.365,2.245,2.245,0,0,1,.916,1.11,4.959,4.959,0,0,1,.308,1.879v4.763H276.1V11.172a2.552,2.552,0,0,0-.129-.891.965.965,0,0,0-.4-.5,1.276,1.276,0,0,0-.672-.162,1.772,1.772,0,0,0-.9.219,1.508,1.508,0,0,0-.592.616,2,2,0,0,0-.211.948v4.44Z" transform="translate(-142.908 -4.075)" fill="#459c23"/>
      <path id="Trazado_571598" data-name="Trazado 571598" d="M293.523,12.306a3.345,3.345,0,0,1-1.823-.494,3.268,3.268,0,0,1-1.223-1.434,5.221,5.221,0,0,1-.437-2.22,5.113,5.113,0,0,1,.437-2.2,3.227,3.227,0,0,1,3.046-1.928,3.091,3.091,0,0,1,1.669.454,2.194,2.194,0,0,1,.972,1.182h-.178V.721h2.446V12.144h-2.4V10.572h.146a2.173,2.173,0,0,1-.964,1.264,3.083,3.083,0,0,1-1.693.47m.729-1.815a1.6,1.6,0,0,0,1.28-.567,2.673,2.673,0,0,0,.486-1.766,2.611,2.611,0,0,0-.486-1.742,1.614,1.614,0,0,0-1.28-.559,1.6,1.6,0,0,0-1.264.559,2.611,2.611,0,0,0-.486,1.742,2.673,2.673,0,0,0,.486,1.766,1.585,1.585,0,0,0,1.264.567" transform="translate(-153.086 -0.381)" fill="#459c23"/>
      <path id="Trazado_571599" data-name="Trazado 571599" d="M314.382,16.2a3.369,3.369,0,0,1-1.669-.373,2.239,2.239,0,0,1-.98-1.11,4.722,4.722,0,0,1-.316-1.855V8.1h2.446V12.91a2.091,2.091,0,0,0,.13.778.923.923,0,0,0,.4.478,1.365,1.365,0,0,0,.689.154,1.549,1.549,0,0,0,.826-.219,1.494,1.494,0,0,0,.559-.624,2.111,2.111,0,0,0,.2-.956V8.1h2.447v7.939h-2.4V14.482h.259a2.655,2.655,0,0,1-2.592,1.717" transform="translate(-164.369 -4.274)" fill="#459c23"/>
      <path id="Trazado_571600" data-name="Trazado 571600" d="M333.961,16a8.416,8.416,0,0,1-1.345-.105,6.517,6.517,0,0,1-1.183-.3,3.543,3.543,0,0,1-.94-.5l.584-1.571a7.867,7.867,0,0,0,.883.421,5.137,5.137,0,0,0,1,.292,5.543,5.543,0,0,0,1.021.1,1.767,1.767,0,0,0,1-.227.685.685,0,0,0,.324-.583.536.536,0,0,0-.211-.462,1.582,1.582,0,0,0-.615-.235l-1.717-.307a2.862,2.862,0,0,1-1.531-.746,1.943,1.943,0,0,1-.543-1.426,2.229,2.229,0,0,1,.454-1.409,2.887,2.887,0,0,1,1.256-.9,4.935,4.935,0,0,1,1.823-.316,6.53,6.53,0,0,1,1.134.1,5.46,5.46,0,0,1,1.045.292,3.732,3.732,0,0,1,.9.5l-.632,1.571a3.622,3.622,0,0,0-.729-.405,4.979,4.979,0,0,0-.859-.275,3.755,3.755,0,0,0-.81-.1,1.959,1.959,0,0,0-1.077.227.681.681,0,0,0-.332.583.615.615,0,0,0,.195.462,1.086,1.086,0,0,0,.583.251l1.718.291a3.066,3.066,0,0,1,1.587.721,1.87,1.87,0,0,1,.551,1.418,2.344,2.344,0,0,1-.437,1.434,2.7,2.7,0,0,1-1.232.9,5.145,5.145,0,0,1-1.863.308" transform="translate(-174.438 -4.075)" fill="#459c23"/>
      <path id="Trazado_571601" data-name="Trazado 571601" d="M350.814,13.573a3.433,3.433,0,0,1-2.52-.818,3.286,3.286,0,0,1-.818-2.422V7.271h-1.507v-1.8h1.507V3.123h2.446V5.472h2.334v1.8h-2.334v2.965a1.446,1.446,0,0,0,.308,1.013,1.315,1.315,0,0,0,1,.332,2.635,2.635,0,0,0,.437-.041,4.99,4.99,0,0,0,.535-.121l.34,1.782a2.826,2.826,0,0,1-.8.276,4.677,4.677,0,0,1-.932.1" transform="translate(-182.606 -1.649)" fill="#459c23"/>
      <path id="Trazado_571602" data-name="Trazado 571602" d="M361.512,15.784V7.845h2.4V9.773h-.162a2.426,2.426,0,0,1,.851-1.491,3.146,3.146,0,0,1,1.758-.6l.68-.065.146,2.074-1.361.13a2.115,2.115,0,0,0-1.369.535,1.8,1.8,0,0,0-.446,1.312v4.116Z" transform="translate(-190.81 -4.021)" fill="#459c23"/>
      <path id="Trazado_571603" data-name="Trazado 571603" d="M375.169,0h2.657V2.268h-2.657Zm.1,3.824h2.447v7.939h-2.447Z" transform="translate(-198.018 0)" fill="#459c23"/>
      <path id="Trazado_571604" data-name="Trazado 571604" d="M386.588,16A3.581,3.581,0,0,1,385,15.668a2.677,2.677,0,0,1-1.069-.907,2.3,2.3,0,0,1-.389-1.321A1.977,1.977,0,0,1,384,12.063a2.731,2.731,0,0,1,1.466-.729,12.8,12.8,0,0,1,2.7-.227h.858v1.264h-.842a9.67,9.67,0,0,0-1.053.049,2.454,2.454,0,0,0-.713.17.88.88,0,0,0-.4.308.8.8,0,0,0-.121.446.951.951,0,0,0,.316.729,1.28,1.28,0,0,0,.9.291,1.68,1.68,0,0,0,.842-.211,1.511,1.511,0,0,0,.583-.583,1.784,1.784,0,0,0,.211-.891V10.832a1.332,1.332,0,0,0-.324-1.013,1.641,1.641,0,0,0-1.118-.3,5.214,5.214,0,0,0-1.353.195,5.521,5.521,0,0,0-1.418.616l-.664-1.62a4.782,4.782,0,0,1,1.013-.518,7.46,7.46,0,0,1,2.52-.47,5.09,5.09,0,0,1,2.066.365,2.446,2.446,0,0,1,1.215,1.126,4.147,4.147,0,0,1,.4,1.928v4.7h-2.285V14.25h.113a2,2,0,0,1-.413.924,2.171,2.171,0,0,1-.793.608,2.643,2.643,0,0,1-1.11.219" transform="translate(-202.438 -4.075)" fill="#459c23"/>
      <path id="Trazado_571605" data-name="Trazado 571605" d="M406.049,12.306a2.861,2.861,0,0,1-2.236-.794A3.465,3.465,0,0,1,403.1,9.13V.721h2.447V9.032a1.742,1.742,0,0,0,.129.713.876.876,0,0,0,.381.43,1.323,1.323,0,0,0,.64.137c.119,0,.235,0,.348-.008a1.172,1.172,0,0,0,.316-.057l-.016,1.9a5.681,5.681,0,0,1-.632.121,5.124,5.124,0,0,1-.664.041" transform="translate(-212.761 -0.381)" fill="#459c23"/>
      <path id="Trazado_571606" data-name="Trazado 571606" d="M145.325,44.6a3.352,3.352,0,0,1-1.823-.494,3.267,3.267,0,0,1-1.223-1.434,5.213,5.213,0,0,1-.438-2.22,5.1,5.1,0,0,1,.438-2.2,3.224,3.224,0,0,1,3.046-1.928,3.1,3.1,0,0,1,1.669.453,2.2,2.2,0,0,1,.972,1.183h-.178V33.017h2.447V44.44h-2.4V42.868h.146a2.172,2.172,0,0,1-.964,1.264,3.086,3.086,0,0,1-1.693.47m.729-1.815a1.6,1.6,0,0,0,1.28-.567,2.671,2.671,0,0,0,.486-1.766,2.608,2.608,0,0,0-.486-1.742,1.614,1.614,0,0,0-1.28-.559,1.6,1.6,0,0,0-1.264.559,2.611,2.611,0,0,0-.486,1.742,2.674,2.674,0,0,0,.486,1.766,1.587,1.587,0,0,0,1.264.567" transform="translate(-74.865 -17.427)" fill="#459c23"/>
      <path id="Trazado_571607" data-name="Trazado 571607" d="M166.984,48.3a5.4,5.4,0,0,1-2.422-.5,3.6,3.6,0,0,1-1.555-1.435,4.311,4.311,0,0,1-.543-2.211A4.231,4.231,0,0,1,162.99,42a3.893,3.893,0,0,1,1.45-1.45,4.094,4.094,0,0,1,2.09-.535,3.934,3.934,0,0,1,2.025.494,3.332,3.332,0,0,1,1.3,1.41,4.7,4.7,0,0,1,.462,2.147v.616h-5.832V43.419h4.066l-.259.227a2.31,2.31,0,0,0-.429-1.507,1.5,1.5,0,0,0-1.223-.518,1.822,1.822,0,0,0-1.02.275,1.752,1.752,0,0,0-.648.8,3.153,3.153,0,0,0-.227,1.256v.129A3.206,3.206,0,0,0,165,45.445a1.6,1.6,0,0,0,.77.786,2.878,2.878,0,0,0,1.264.251,4.647,4.647,0,0,0,1.312-.195,3.666,3.666,0,0,0,1.2-.6l.648,1.636a4.916,4.916,0,0,1-1.475.7,5.9,5.9,0,0,1-1.733.267" transform="translate(-85.75 -21.122)" fill="#459c23"/>
      <path id="Trazado_571608" data-name="Trazado 571608" d="M184.766,44.6a2.861,2.861,0,0,1-2.236-.794,3.465,3.465,0,0,1-.713-2.382V33.017h2.446v8.311a1.749,1.749,0,0,0,.129.713.878.878,0,0,0,.381.43,1.32,1.32,0,0,0,.64.137q.178,0,.348-.008a1.191,1.191,0,0,0,.316-.057l-.016,1.9a5.682,5.682,0,0,1-.632.121,5.122,5.122,0,0,1-.664.041" transform="translate(-95.965 -17.427)" fill="#459c23"/>
      <path id="Trazado_571609" data-name="Trazado 571609" d="M202.575,44.44V33.017h4.472a7.523,7.523,0,0,1,3.321.664,4.7,4.7,0,0,1,2.082,1.936,7.036,7.036,0,0,1,0,6.206,4.751,4.751,0,0,1-2.082,1.945,7.448,7.448,0,0,1-3.321.672Zm2.512-2.058h1.8a3.669,3.669,0,1,0,0-7.307h-1.8Z" transform="translate(-106.921 -17.427)" fill="#459c23"/>
      <path id="Trazado_571610" data-name="Trazado 571610" d="M228.139,32.3H230.8v2.268h-2.657Zm.1,3.824h2.446v7.939h-2.446Z" transform="translate(-120.414 -17.046)" fill="#459c23"/>
      <path id="Trazado_571611" data-name="Trazado 571611" d="M239.806,48.3a8.36,8.36,0,0,1-1.345-.105,6.517,6.517,0,0,1-1.183-.3,3.537,3.537,0,0,1-.94-.5l.584-1.571a7.873,7.873,0,0,0,.883.422,5.161,5.161,0,0,0,1,.291,5.536,5.536,0,0,0,1.021.1,1.768,1.768,0,0,0,1-.227.685.685,0,0,0,.324-.583.536.536,0,0,0-.211-.462,1.592,1.592,0,0,0-.616-.235l-1.717-.307a2.86,2.86,0,0,1-1.531-.746,1.945,1.945,0,0,1-.543-1.426,2.226,2.226,0,0,1,.454-1.409,2.887,2.887,0,0,1,1.256-.9,4.932,4.932,0,0,1,1.823-.316,6.526,6.526,0,0,1,1.134.1,5.476,5.476,0,0,1,1.045.292,3.733,3.733,0,0,1,.9.5l-.632,1.571a3.6,3.6,0,0,0-.729-.405,5,5,0,0,0-.859-.275,3.763,3.763,0,0,0-.81-.1,1.96,1.96,0,0,0-1.078.227.681.681,0,0,0-.332.583.613.613,0,0,0,.195.462,1.083,1.083,0,0,0,.583.251l1.717.291a3.066,3.066,0,0,1,1.588.721,1.871,1.871,0,0,1,.551,1.418,2.34,2.34,0,0,1-.437,1.434,2.7,2.7,0,0,1-1.231.9,5.158,5.158,0,0,1-1.863.307" transform="translate(-124.742 -21.122)" fill="#459c23"/>
      <path id="Trazado_571612" data-name="Trazado 571612" d="M257.5,48.3a5.4,5.4,0,0,1-2.422-.5,3.6,3.6,0,0,1-1.555-1.435,4.311,4.311,0,0,1-.543-2.211A4.23,4.23,0,0,1,253.508,42a3.893,3.893,0,0,1,1.45-1.45,4.094,4.094,0,0,1,2.09-.535,3.934,3.934,0,0,1,2.025.494,3.332,3.332,0,0,1,1.3,1.41,4.7,4.7,0,0,1,.462,2.147v.616h-5.832V43.419h4.066l-.259.227a2.31,2.31,0,0,0-.429-1.507,1.5,1.5,0,0,0-1.223-.518,1.822,1.822,0,0,0-1.02.275,1.752,1.752,0,0,0-.648.8,3.153,3.153,0,0,0-.227,1.256v.129a3.206,3.206,0,0,0,.251,1.361,1.6,1.6,0,0,0,.77.786,2.878,2.878,0,0,0,1.264.251,4.647,4.647,0,0,0,1.312-.195,3.667,3.667,0,0,0,1.2-.6l.648,1.636a4.915,4.915,0,0,1-1.475.7,5.9,5.9,0,0,1-1.733.267" transform="translate(-133.526 -21.122)" fill="#459c23"/>
      <path id="Trazado_571613" data-name="Trazado 571613" d="M272.334,43.679V35.74h2.4V37.23h-.178a2.6,2.6,0,0,1,1.1-1.239,3.282,3.282,0,0,1,1.669-.429,3.039,3.039,0,0,1,1.58.365,2.243,2.243,0,0,1,.915,1.11,4.953,4.953,0,0,1,.308,1.879v4.764h-2.447V39.013a2.552,2.552,0,0,0-.129-.891.968.968,0,0,0-.4-.5,1.282,1.282,0,0,0-.672-.161,1.776,1.776,0,0,0-.9.218,1.513,1.513,0,0,0-.592.616,1.993,1.993,0,0,0-.211.948v4.44Zm1.815-9.4-1.167-.081a3.049,3.049,0,0,1,.632-1.864,1.813,1.813,0,0,1,1.442-.664,1.611,1.611,0,0,1,.664.137,4.9,4.9,0,0,1,.7.4,3.716,3.716,0,0,0,.551.34,1,1,0,0,0,.421.1.851.851,0,0,0,.664-.267,1.42,1.42,0,0,0,.308-.8l1.167.1a3.093,3.093,0,0,1-.624,1.855,1.781,1.781,0,0,1-1.434.673,1.652,1.652,0,0,1-.648-.13,4.18,4.18,0,0,1-.729-.421,2.771,2.771,0,0,0-.535-.332,1.117,1.117,0,0,0-.437-.089.826.826,0,0,0-.656.267,1.526,1.526,0,0,0-.316.786" transform="translate(-143.741 -16.666)" fill="#459c23"/>
      <path id="Trazado_571614" data-name="Trazado 571614" d="M295.83,48.3a4.642,4.642,0,0,1-2.219-.5,3.6,3.6,0,0,1-1.467-1.434,4.874,4.874,0,0,1,0-4.407,3.609,3.609,0,0,1,1.467-1.434,4.647,4.647,0,0,1,2.219-.5,4.7,4.7,0,0,1,2.228.5,3.594,3.594,0,0,1,1.474,1.434,4.87,4.87,0,0,1,0,4.407,3.585,3.585,0,0,1-1.474,1.434,4.694,4.694,0,0,1-2.228.5m0-1.815a1.6,1.6,0,0,0,1.28-.567,2.674,2.674,0,0,0,.486-1.766,2.611,2.611,0,0,0-.486-1.742,1.615,1.615,0,0,0-1.28-.559,1.6,1.6,0,0,0-1.264.559,2.611,2.611,0,0,0-.486,1.742,2.674,2.674,0,0,0,.486,1.766,1.585,1.585,0,0,0,1.264.567" transform="translate(-153.919 -21.122)" fill="#459c23"/>
      <path id="Trazado_571615" data-name="Trazado 571615" d="M320.835,51.249l1.766-3.824v.988l-3.5-8.02h2.592l2.236,5.688h-.5l2.3-5.688h2.431l-4.812,10.856Z" transform="translate(-168.425 -21.32)" fill="#459c23"/>
      <path id="Trazado_571616" data-name="Trazado 571616" d="M351.628,44.6a2.861,2.861,0,0,1-2.236-.794,3.465,3.465,0,0,1-.713-2.382V33.017h2.447v8.311a1.742,1.742,0,0,0,.129.713.875.875,0,0,0,.381.43,1.318,1.318,0,0,0,.64.137q.179,0,.349-.008a1.19,1.19,0,0,0,.316-.057l-.016,1.9a5.682,5.682,0,0,1-.632.121,5.123,5.123,0,0,1-.664.041" transform="translate(-184.037 -17.427)" fill="#459c23"/>
      <path id="Trazado_571617" data-name="Trazado 571617" d="M362.123,48.3a3.581,3.581,0,0,1-1.588-.332,2.678,2.678,0,0,1-1.069-.908,2.3,2.3,0,0,1-.389-1.321,1.978,1.978,0,0,1,.454-1.377A2.731,2.731,0,0,1,361,43.63a12.8,12.8,0,0,1,2.7-.227h.858v1.264h-.842a9.791,9.791,0,0,0-1.053.049,2.453,2.453,0,0,0-.713.17.879.879,0,0,0-.4.308.8.8,0,0,0-.121.446.952.952,0,0,0,.316.729,1.281,1.281,0,0,0,.9.291,1.68,1.68,0,0,0,.842-.211,1.51,1.51,0,0,0,.583-.583,1.788,1.788,0,0,0,.211-.891V43.128a1.332,1.332,0,0,0-.324-1.013,1.641,1.641,0,0,0-1.118-.3,5.214,5.214,0,0,0-1.353.195,5.52,5.52,0,0,0-1.418.616l-.664-1.62a4.782,4.782,0,0,1,1.013-.518,7.46,7.46,0,0,1,2.52-.47,5.09,5.09,0,0,1,2.066.365,2.446,2.446,0,0,1,1.215,1.126,4.147,4.147,0,0,1,.4,1.928v4.7h-2.285V46.546h.113a2,2,0,0,1-.413.924,2.165,2.165,0,0,1-.793.608,2.643,2.643,0,0,1-1.11.219" transform="translate(-189.525 -21.122)" fill="#459c23"/>
      <path id="Trazado_571618" data-name="Trazado 571618" d="M388.345,44.44V33.017h2.106l4.1,7.5h-.519l4.1-7.5h2.057V44.44H397.9V36.857h.357l-3.305,5.865h-1.41l-3.305-5.882h.373v7.6Z" transform="translate(-204.973 -17.427)" fill="#459c23"/>
      <path id="Trazado_571619" data-name="Trazado 571619" d="M419.872,48.3a3.581,3.581,0,0,1-1.588-.332,2.678,2.678,0,0,1-1.07-.908,2.3,2.3,0,0,1-.389-1.321,1.978,1.978,0,0,1,.454-1.377,2.731,2.731,0,0,1,1.466-.729,12.8,12.8,0,0,1,2.7-.227h.858v1.264h-.842a9.79,9.79,0,0,0-1.053.049,2.454,2.454,0,0,0-.713.17.879.879,0,0,0-.4.308.8.8,0,0,0-.121.446.952.952,0,0,0,.316.729,1.28,1.28,0,0,0,.9.291,1.68,1.68,0,0,0,.842-.211,1.51,1.51,0,0,0,.583-.583,1.788,1.788,0,0,0,.211-.891V43.128a1.332,1.332,0,0,0-.324-1.013,1.641,1.641,0,0,0-1.118-.3,5.214,5.214,0,0,0-1.353.195,5.521,5.521,0,0,0-1.418.616l-.664-1.62a4.781,4.781,0,0,1,1.013-.518,7.46,7.46,0,0,1,2.52-.47,5.09,5.09,0,0,1,2.066.365,2.446,2.446,0,0,1,1.215,1.126,4.147,4.147,0,0,1,.4,1.928v4.7h-2.285V46.546h.113a2,2,0,0,1-.413.924,2.166,2.166,0,0,1-.793.608,2.643,2.643,0,0,1-1.11.219" transform="translate(-220.005 -21.122)" fill="#459c23"/>
      <path id="Trazado_571620" data-name="Trazado 571620" d="M436.384,48.134V40.2h2.4v1.491H438.6a2.594,2.594,0,0,1,1.1-1.239,3.284,3.284,0,0,1,1.669-.429,3.038,3.038,0,0,1,1.58.365,2.244,2.244,0,0,1,.916,1.11,4.961,4.961,0,0,1,.308,1.879v4.764h-2.447V43.468a2.56,2.56,0,0,0-.129-.891.966.966,0,0,0-.4-.5,1.282,1.282,0,0,0-.672-.162,1.777,1.777,0,0,0-.9.219,1.514,1.514,0,0,0-.592.616,2,2,0,0,0-.21.948v4.44Z" transform="translate(-230.328 -21.122)" fill="#459c23"/>
      <path id="Trazado_571621" data-name="Trazado 571621" d="M459.389,48.5a3.375,3.375,0,0,1-1.669-.373,2.242,2.242,0,0,1-.98-1.11,4.722,4.722,0,0,1-.316-1.855V40.394h2.446v4.812a2.093,2.093,0,0,0,.13.778.921.921,0,0,0,.4.477,1.365,1.365,0,0,0,.689.154,1.553,1.553,0,0,0,.826-.219,1.5,1.5,0,0,0,.559-.624,2.111,2.111,0,0,0,.2-.956V40.394h2.447v7.939h-2.4V46.778h.259a2.654,2.654,0,0,1-2.592,1.717" transform="translate(-240.906 -21.321)" fill="#459c23"/>
      <path id="Trazado_571622" data-name="Trazado 571622" d="M475.994,44.331V38.19h-1.523v-1.8h2.236l-.713.648v-.519a3.467,3.467,0,0,1,.94-2.649,4.567,4.567,0,0,1,2.933-1l.891-.065.13,1.782-.746.049a2.842,2.842,0,0,0-1,.2,1.1,1.1,0,0,0-.543.47,1.616,1.616,0,0,0-.162.77v.567l-.292-.259h2.366v1.8h-2.073v6.141Z" transform="translate(-250.431 -17.318)" fill="#459c23"/>
      <path id="Trazado_571623" data-name="Trazado 571623" d="M491.552,48.3a3.581,3.581,0,0,1-1.588-.332,2.678,2.678,0,0,1-1.069-.908,2.3,2.3,0,0,1-.389-1.321,1.978,1.978,0,0,1,.454-1.377,2.731,2.731,0,0,1,1.466-.729,12.8,12.8,0,0,1,2.7-.227h.858v1.264h-.842a9.79,9.79,0,0,0-1.053.049,2.453,2.453,0,0,0-.713.17.879.879,0,0,0-.4.308.8.8,0,0,0-.121.446.952.952,0,0,0,.316.729,1.281,1.281,0,0,0,.9.291,1.68,1.68,0,0,0,.842-.211,1.51,1.51,0,0,0,.583-.583,1.787,1.787,0,0,0,.211-.891V43.128a1.332,1.332,0,0,0-.324-1.013,1.641,1.641,0,0,0-1.118-.3,5.214,5.214,0,0,0-1.353.195,5.521,5.521,0,0,0-1.418.616l-.664-1.62a4.782,4.782,0,0,1,1.013-.518,7.46,7.46,0,0,1,2.52-.47,5.09,5.09,0,0,1,2.066.365,2.446,2.446,0,0,1,1.215,1.126,4.147,4.147,0,0,1,.4,1.928v4.7h-2.285V46.546h.113a2,2,0,0,1-.413.924,2.166,2.166,0,0,1-.793.608,2.643,2.643,0,0,1-1.11.219" transform="translate(-257.839 -21.122)" fill="#459c23"/>
      <path id="Trazado_571624" data-name="Trazado 571624" d="M511.5,48.3a4.778,4.778,0,0,1-2.252-.5,3.565,3.565,0,0,1-1.482-1.442,4.467,4.467,0,0,1-.526-2.22,4.374,4.374,0,0,1,.526-2.2,3.54,3.54,0,0,1,1.482-1.418,4.841,4.841,0,0,1,2.252-.494,5.372,5.372,0,0,1,1.539.227,3.5,3.5,0,0,1,1.264.648l-.68,1.685a2.718,2.718,0,0,0-.9-.518,2.978,2.978,0,0,0-.98-.178,1.893,1.893,0,0,0-1.483.583,2.406,2.406,0,0,0-.526,1.669,2.541,2.541,0,0,0,.526,1.694,1.833,1.833,0,0,0,1.483.623,2.782,2.782,0,0,0,.972-.194,3.117,3.117,0,0,0,.908-.519l.68,1.7a3.954,3.954,0,0,1-1.272.624,5.235,5.235,0,0,1-1.531.235" transform="translate(-267.728 -21.122)" fill="#459c23"/>
      <path id="Trazado_571625" data-name="Trazado 571625" d="M527.012,45.869a3.432,3.432,0,0,1-2.52-.818,3.287,3.287,0,0,1-.818-2.422V39.567h-1.507v-1.8h1.507V35.419h2.446v2.349h2.333v1.8H526.12v2.965a1.445,1.445,0,0,0,.308,1.012,1.315,1.315,0,0,0,1,.332,2.635,2.635,0,0,0,.437-.041,5.09,5.09,0,0,0,.535-.121l.341,1.782a2.842,2.842,0,0,1-.8.275,4.643,4.643,0,0,1-.932.1" transform="translate(-275.606 -18.695)" fill="#459c23"/>
      <path id="Trazado_571626" data-name="Trazado 571626" d="M540.607,48.5a3.374,3.374,0,0,1-1.669-.373,2.242,2.242,0,0,1-.98-1.11,4.722,4.722,0,0,1-.316-1.855V40.394h2.446v4.812a2.1,2.1,0,0,0,.13.778.922.922,0,0,0,.4.477,1.365,1.365,0,0,0,.689.154,1.553,1.553,0,0,0,.826-.219,1.5,1.5,0,0,0,.559-.624,2.111,2.111,0,0,0,.2-.956V40.394h2.447v7.939h-2.4V46.778h.259a2.654,2.654,0,0,1-2.592,1.717" transform="translate(-283.774 -21.321)" fill="#459c23"/>
      <path id="Trazado_571627" data-name="Trazado 571627" d="M557.613,48.08V40.141h2.4v1.928h-.162a2.427,2.427,0,0,1,.851-1.491,3.146,3.146,0,0,1,1.758-.6l.68-.065.146,2.074-1.361.129a2.118,2.118,0,0,0-1.369.535,1.8,1.8,0,0,0-.446,1.313V48.08Z" transform="translate(-294.314 -21.067)" fill="#459c23"/>
      <path id="Trazado_571628" data-name="Trazado 571628" d="M573.8,48.3a3.581,3.581,0,0,1-1.588-.332,2.678,2.678,0,0,1-1.07-.908,2.3,2.3,0,0,1-.389-1.321,1.978,1.978,0,0,1,.454-1.377,2.731,2.731,0,0,1,1.466-.729,12.8,12.8,0,0,1,2.7-.227h.858v1.264h-.842a9.789,9.789,0,0,0-1.053.049,2.453,2.453,0,0,0-.713.17.88.88,0,0,0-.4.308.8.8,0,0,0-.121.446.952.952,0,0,0,.316.729,1.281,1.281,0,0,0,.9.291,1.68,1.68,0,0,0,.842-.211,1.51,1.51,0,0,0,.583-.583,1.788,1.788,0,0,0,.211-.891V43.128a1.332,1.332,0,0,0-.324-1.013,1.641,1.641,0,0,0-1.118-.3,5.215,5.215,0,0,0-1.353.195,5.52,5.52,0,0,0-1.418.616l-.664-1.62a4.781,4.781,0,0,1,1.013-.518,7.46,7.46,0,0,1,2.52-.47,5.09,5.09,0,0,1,2.066.365,2.446,2.446,0,0,1,1.215,1.126,4.147,4.147,0,0,1,.4,1.928v4.7H576V46.546h.113a2,2,0,0,1-.413.924,2.165,2.165,0,0,1-.793.608,2.643,2.643,0,0,1-1.11.219" transform="translate(-301.251 -21.122)" fill="#459c23"/>
      <path id="Trazado_571629" data-name="Trazado 571629" d="M143.027,82.926V73.375h3.956a3.519,3.519,0,0,1,2.385.732,2.6,2.6,0,0,1,.84,2.073,2.81,2.81,0,0,1-.38,1.49,2.4,2.4,0,0,1-1.1.948,4.233,4.233,0,0,1-1.741.325l.122-.19h.352a1.638,1.638,0,0,1,.942.271,2.418,2.418,0,0,1,.724.867l1.653,3.035h-1.545l-1.653-3.048a1.965,1.965,0,0,0-.413-.549,1.227,1.227,0,0,0-.515-.271,2.785,2.785,0,0,0-.684-.075h-1.531v3.942Zm1.409-5h2.317a2.41,2.41,0,0,0,1.558-.433,1.567,1.567,0,0,0,.528-1.287,1.551,1.551,0,0,0-.528-1.273,2.41,2.41,0,0,0-1.558-.433h-2.317Z" transform="translate(-75.491 -38.728)" fill="#494848"/>
      <path id="Trazado_571630" data-name="Trazado 571630" d="M164.426,86.2a3.928,3.928,0,0,1-1.863-.413,2.921,2.921,0,0,1-1.206-1.179,4.093,4.093,0,0,1-.007-3.625,3.087,3.087,0,0,1,1.152-1.206,3.205,3.205,0,0,1,1.666-.434,2.985,2.985,0,0,1,1.578.4,2.622,2.622,0,0,1,1.01,1.131,4,4,0,0,1,.352,1.748v.46h-5.094v-.84h4.173l-.23.189a2.446,2.446,0,0,0-.447-1.571,1.556,1.556,0,0,0-1.287-.555,1.79,1.79,0,0,0-1.748,1.124,3.059,3.059,0,0,0-.23,1.233v.082a3.092,3.092,0,0,0,.251,1.32,1.729,1.729,0,0,0,.738.806,2.453,2.453,0,0,0,1.206.272,3.5,3.5,0,0,0,1.118-.183,3.322,3.322,0,0,0,1.036-.576l.406.948a3.131,3.131,0,0,1-1.151.637,4.556,4.556,0,0,1-1.423.23" transform="translate(-84.941 -41.878)" fill="#494848"/>
      <path id="Trazado_571631" data-name="Trazado 571631" d="M179.352,88.637a6.149,6.149,0,0,1-1.666-.217,4.257,4.257,0,0,1-1.368-.65l.42-.976a5.577,5.577,0,0,0,.806.44,3.814,3.814,0,0,0,.84.264,4.652,4.652,0,0,0,.874.081,1.915,1.915,0,0,0,1.422-.481,1.935,1.935,0,0,0,.474-1.416V84.3h.122a2.014,2.014,0,0,1-.854,1.179,2.647,2.647,0,0,1-1.5.433,2.889,2.889,0,0,1-1.558-.413,2.774,2.774,0,0,1-1.03-1.152,3.849,3.849,0,0,1-.365-1.727,3.809,3.809,0,0,1,.365-1.721,2.783,2.783,0,0,1,1.03-1.145,2.889,2.889,0,0,1,1.558-.413,2.635,2.635,0,0,1,1.51.434,1.961,1.961,0,0,1,.833,1.179h-.109V79.465h1.328v6.056a3.813,3.813,0,0,1-.352,1.727,2.285,2.285,0,0,1-1.05,1.043,3.88,3.88,0,0,1-1.728.345m-.108-3.793a1.728,1.728,0,0,0,1.389-.6,2.833,2.833,0,0,0,0-3.238,1.907,1.907,0,0,0-2.771,0,2.8,2.8,0,0,0,0,3.238,1.733,1.733,0,0,0,1.382.6" transform="translate(-92.876 -41.878)" fill="#494848"/>
      <path id="Trazado_571632" data-name="Trazado 571632" d="M193.208,73.346h1.6v1.423h-1.6Zm.122,2.954H194.7v6.611H193.33Z" transform="translate(-101.977 -38.713)" fill="#494848"/>
      <path id="Trazado_571633" data-name="Trazado 571633" d="M202.484,86.2a3.363,3.363,0,0,1-1.714-.42,2.91,2.91,0,0,1-1.131-1.193,3.874,3.874,0,0,1-.407-1.829,3.8,3.8,0,0,1,.407-1.808,2.924,2.924,0,0,1,1.131-1.186,3.735,3.735,0,0,1,3.441,0,2.913,2.913,0,0,1,1.131,1.193,4.255,4.255,0,0,1,0,3.63,2.913,2.913,0,0,1-1.131,1.193,3.39,3.39,0,0,1-1.727.42m0-1.057a1.7,1.7,0,0,0,1.368-.61,2.659,2.659,0,0,0,.515-1.761,2.628,2.628,0,0,0-.515-1.761,1.852,1.852,0,0,0-2.723,0,2.628,2.628,0,0,0-.515,1.761,2.659,2.659,0,0,0,.515,1.761,1.688,1.688,0,0,0,1.355.61" transform="translate(-105.157 -41.878)" fill="#494848"/>
      <path id="Trazado_571634" data-name="Trazado 571634" d="M215.9,86.076V79.465h1.328v1.409h-.149a2.255,2.255,0,0,1,.935-1.144,2.762,2.762,0,0,1,1.463-.387,2.654,2.654,0,0,1,1.307.291,1.8,1.8,0,0,1,.779.881A3.722,3.722,0,0,1,221.822,82v4.078h-1.368v-4a2.45,2.45,0,0,0-.149-.928,1.084,1.084,0,0,0-.447-.535,1.507,1.507,0,0,0-.772-.176,1.929,1.929,0,0,0-.955.231,1.56,1.56,0,0,0-.637.663,2.161,2.161,0,0,0-.223,1v3.739Z" transform="translate(-113.956 -41.878)" fill="#494848"/>
      <path id="Trazado_571635" data-name="Trazado 571635" d="M233.836,86.2a2.758,2.758,0,0,1-1.24-.271,2.174,2.174,0,0,1-.86-.731,1.815,1.815,0,0,1-.312-1.044,1.7,1.7,0,0,1,.373-1.158,2.2,2.2,0,0,1,1.232-.61,11.682,11.682,0,0,1,2.324-.183h.637v.84h-.623a11.8,11.8,0,0,0-1.233.055,3.255,3.255,0,0,0-.8.169.845.845,0,0,0-.427.318.9.9,0,0,0-.128.488,1.068,1.068,0,0,0,.352.833,1.4,1.4,0,0,0,.976.318,1.624,1.624,0,0,0,.88-.237,1.716,1.716,0,0,0,.6-.644,1.907,1.907,0,0,0,.224-.935V81.849a1.57,1.57,0,0,0-.325-1.111,1.436,1.436,0,0,0-1.07-.339,3.992,3.992,0,0,0-1.138.169,4.914,4.914,0,0,0-1.165.535l-.42-.962a3.822,3.822,0,0,1,.813-.42,6.06,6.06,0,0,1,.968-.278,5.029,5.029,0,0,1,.983-.1,3.448,3.448,0,0,1,1.5.285,1.834,1.834,0,0,1,.874.867,3.438,3.438,0,0,1,.284,1.5v4.078h-1.287V84.6h.122a2.018,2.018,0,0,1-.4.86,1.9,1.9,0,0,1-.725.549,2.451,2.451,0,0,1-.989.19" transform="translate(-122.149 -41.878)" fill="#494848"/>
      <path id="Trazado_571636" data-name="Trazado 571636" d="M249.243,83.048a2.03,2.03,0,0,1-1.619-.617,2.639,2.639,0,0,1-.535-1.782V73.375h1.368v7.194a1.987,1.987,0,0,0,.122.738.9.9,0,0,0,.366.454,1.152,1.152,0,0,0,.61.149q.162,0,.312-.014a1.415,1.415,0,0,0,.284-.054l-.027,1.1a4.415,4.415,0,0,1-.447.081,3.515,3.515,0,0,1-.433.027" transform="translate(-130.416 -38.728)" fill="#494848"/>
      <path id="Trazado_571637" data-name="Trazado 571637" d="M265.653,82.912a7.569,7.569,0,0,1-1.416-.128A5.617,5.617,0,0,1,263,82.4a4.417,4.417,0,0,1-1-.6l.447-1.111a5.739,5.739,0,0,0,.948.569,4.608,4.608,0,0,0,1.043.345,5.9,5.9,0,0,0,1.206.116,2.83,2.83,0,0,0,1.7-.413,1.289,1.289,0,0,0,.549-1.078,1.109,1.109,0,0,0-.17-.623,1.323,1.323,0,0,0-.549-.441,4.245,4.245,0,0,0-.989-.3l-1.449-.3a3.781,3.781,0,0,1-1.917-.894,2.255,2.255,0,0,1-.63-1.68,2.558,2.558,0,0,1,.46-1.517,2.965,2.965,0,0,1,1.267-1,4.616,4.616,0,0,1,1.863-.352,5.818,5.818,0,0,1,1.24.128,4.571,4.571,0,0,1,1.1.386,3.633,3.633,0,0,1,.888.623l-.461,1.07a3.988,3.988,0,0,0-1.26-.765,4.349,4.349,0,0,0-1.518-.251,3.033,3.033,0,0,0-1.158.2,1.7,1.7,0,0,0-.759.569,1.442,1.442,0,0,0-.264.867,1.177,1.177,0,0,0,.366.908,2.566,2.566,0,0,0,1.219.515l1.436.3a4.334,4.334,0,0,1,2.019.881,2.027,2.027,0,0,1,.664,1.585,2.453,2.453,0,0,1-.447,1.456,2.88,2.88,0,0,1-1.26.976,4.935,4.935,0,0,1-1.937.346" transform="translate(-138.291 -38.592)" fill="#494848"/>
      <path id="Trazado_571638" data-name="Trazado 571638" d="M281.921,86.2a2.76,2.76,0,0,1-1.24-.271,2.177,2.177,0,0,1-.86-.731,1.819,1.819,0,0,1-.312-1.044,1.7,1.7,0,0,1,.373-1.158,2.2,2.2,0,0,1,1.233-.61,11.678,11.678,0,0,1,2.324-.183h.636v.84h-.623a11.8,11.8,0,0,0-1.232.055,3.259,3.259,0,0,0-.8.169.844.844,0,0,0-.426.318.892.892,0,0,0-.129.488,1.07,1.07,0,0,0,.352.833,1.4,1.4,0,0,0,.976.318,1.627,1.627,0,0,0,.881-.237,1.72,1.72,0,0,0,.6-.644,1.912,1.912,0,0,0,.223-.935V81.849a1.57,1.57,0,0,0-.325-1.111,1.436,1.436,0,0,0-1.07-.339,3.989,3.989,0,0,0-1.138.169,4.925,4.925,0,0,0-1.165.535l-.42-.962a3.808,3.808,0,0,1,.813-.42,6.053,6.053,0,0,1,.969-.278,5.02,5.02,0,0,1,.982-.1,3.447,3.447,0,0,1,1.5.285,1.834,1.834,0,0,1,.874.867A3.432,3.432,0,0,1,285.2,82v4.078h-1.287V84.6h.122a2.024,2.024,0,0,1-.4.86,1.9,1.9,0,0,1-.725.549,2.455,2.455,0,0,1-.989.19" transform="translate(-147.529 -41.878)" fill="#494848"/>
      <path id="Trazado_571639" data-name="Trazado 571639" d="M295.176,86.076V79.465H296.5v1.409h-.149a2.253,2.253,0,0,1,.935-1.144,2.761,2.761,0,0,1,1.463-.387,2.657,2.657,0,0,1,1.307.291,1.8,1.8,0,0,1,.779.881A3.722,3.722,0,0,1,301.1,82v4.078h-1.368v-4a2.45,2.45,0,0,0-.149-.928,1.083,1.083,0,0,0-.448-.535,1.5,1.5,0,0,0-.772-.176,1.93,1.93,0,0,0-.955.231,1.56,1.56,0,0,0-.637.663,2.161,2.161,0,0,0-.224,1v3.739Z" transform="translate(-155.797 -41.878)" fill="#494848"/>
      <path id="Trazado_571640" data-name="Trazado 571640" d="M313.1,84.108a2.461,2.461,0,0,1-1.85-.637,2.543,2.543,0,0,1-.617-1.842v-3.2h-1.287V77.375h1.287V75.383H312v1.992h2.046v1.057H312v3.089a1.663,1.663,0,0,0,.3,1.083,1.228,1.228,0,0,0,1,.366,1.645,1.645,0,0,0,.413-.054l.413-.109.216,1.03a1.839,1.839,0,0,1-.562.2,3.376,3.376,0,0,1-.684.075" transform="translate(-163.277 -39.788)" fill="#494848"/>
      <path id="Trazado_571641" data-name="Trazado 571641" d="M323.208,86.2a2.757,2.757,0,0,1-1.24-.271,2.18,2.18,0,0,1-.86-.731,1.818,1.818,0,0,1-.311-1.044,1.7,1.7,0,0,1,.373-1.158,2.2,2.2,0,0,1,1.232-.61,11.678,11.678,0,0,1,2.324-.183h.637v.84h-.623a11.8,11.8,0,0,0-1.232.055,3.259,3.259,0,0,0-.8.169.846.846,0,0,0-.426.318.892.892,0,0,0-.128.488,1.068,1.068,0,0,0,.352.833,1.4,1.4,0,0,0,.975.318,1.627,1.627,0,0,0,.881-.237,1.72,1.72,0,0,0,.6-.644,1.912,1.912,0,0,0,.223-.935V81.849a1.57,1.57,0,0,0-.325-1.111,1.436,1.436,0,0,0-1.07-.339,3.989,3.989,0,0,0-1.138.169,4.926,4.926,0,0,0-1.165.535l-.42-.962a3.808,3.808,0,0,1,.813-.42,6.064,6.064,0,0,1,.969-.278,5.02,5.02,0,0,1,.982-.1,3.446,3.446,0,0,1,1.5.285,1.834,1.834,0,0,1,.874.867,3.431,3.431,0,0,1,.284,1.5v4.078H325.2V84.6h.122a2.024,2.024,0,0,1-.4.86,1.9,1.9,0,0,1-.725.549,2.455,2.455,0,0,1-.989.19" transform="translate(-169.32 -41.878)" fill="#494848"/>
      <path id="Trazado_571642" data-name="Trazado 571642" d="M336.461,86.076V79.465h1.328v1.409h-.149a2.253,2.253,0,0,1,.935-1.144,2.761,2.761,0,0,1,1.463-.387,2.659,2.659,0,0,1,1.308.291,1.8,1.8,0,0,1,.779.881A3.723,3.723,0,0,1,342.381,82v4.078h-1.368v-4a2.449,2.449,0,0,0-.149-.928,1.082,1.082,0,0,0-.447-.535,1.508,1.508,0,0,0-.772-.176,1.93,1.93,0,0,0-.955.231,1.561,1.561,0,0,0-.637.663,2.162,2.162,0,0,0-.224,1v3.739Z" transform="translate(-177.588 -41.878)" fill="#494848"/>
      <path id="Trazado_571643" data-name="Trazado 571643" d="M354.695,83.048a2.805,2.805,0,0,1-1.525-.413,2.747,2.747,0,0,1-1.023-1.192,4.25,4.25,0,0,1-.365-1.822,4.186,4.186,0,0,1,.365-1.829,2.813,2.813,0,0,1,1.023-1.179,2.773,2.773,0,0,1,1.525-.42,2.6,2.6,0,0,1,1.5.427,2.07,2.07,0,0,1,.847,1.145h-.149V73.375h1.369v9.551h-1.342v-1.49h.136a2.133,2.133,0,0,1-.847,1.172,2.569,2.569,0,0,1-1.511.44m.352-1.057a1.688,1.688,0,0,0,1.355-.61,2.659,2.659,0,0,0,.515-1.761,2.628,2.628,0,0,0-.515-1.761,1.852,1.852,0,0,0-2.723,0,2.628,2.628,0,0,0-.515,1.761,2.659,2.659,0,0,0,.515,1.761,1.7,1.7,0,0,0,1.368.61" transform="translate(-185.675 -38.728)" fill="#494848"/>
      <path id="Trazado_571644" data-name="Trazado 571644" d="M371.861,86.2A3.927,3.927,0,0,1,370,85.785a2.921,2.921,0,0,1-1.206-1.179,4.093,4.093,0,0,1-.007-3.625,3.087,3.087,0,0,1,1.152-1.206,3.206,3.206,0,0,1,1.666-.434,2.988,2.988,0,0,1,1.579.4,2.624,2.624,0,0,1,1.009,1.131,3.989,3.989,0,0,1,.352,1.748v.46H369.45v-.84h4.172l-.23.189a2.446,2.446,0,0,0-.447-1.571,1.555,1.555,0,0,0-1.287-.555,1.791,1.791,0,0,0-1.748,1.124,3.067,3.067,0,0,0-.23,1.233v.082a3.107,3.107,0,0,0,.25,1.32,1.731,1.731,0,0,0,.739.806,2.449,2.449,0,0,0,1.205.272,3.5,3.5,0,0,0,1.118-.183,3.317,3.317,0,0,0,1.036-.576l.406.948a3.131,3.131,0,0,1-1.151.637,4.556,4.556,0,0,1-1.423.23" transform="translate(-194.428 -41.878)" fill="#494848"/>
      <path id="Trazado_571645" data-name="Trazado 571645" d="M384.231,86.031V79.42h1.328V81h-.136a2.179,2.179,0,0,1,.78-1.232,2.792,2.792,0,0,1,1.5-.488l.447-.027.094,1.165-.826.081a2.064,2.064,0,0,0-1.341.556,1.788,1.788,0,0,0-.46,1.3v3.671Z" transform="translate(-202.801 -41.833)" fill="#494848"/>
      <path id="Trazado_571646" data-name="Trazado 571646" d="M117.953,1.235c0-.329.125-.6.278-.6s.278.267.278.6V45.05c0,.329-.125.6-.278.6s-.278-.267-.278-.6Z" transform="translate(-62.257 -0.337)" fill="#484747"/>
      <path id="Trazado_571647" data-name="Trazado 571647" d="M41.886,29.721l-1.1-2.421L39.69,29.721Zm.645,1.457H39.023l-.482,1.112H35.4l3.744-6.734H42.5l3.746,6.734H43.02ZM24.965,25.556h2.876l3.751,3.725V25.556h2.9V32.29h-2.9l-3.732-3.7v3.7H24.965Zm-10.076,0h8.248v1.438H17.975v1.07h4.789v1.374H17.975v1.326h5.314V32.29h-8.4ZM4.309,30.061l2.929-.124a1.255,1.255,0,0,0,.388.735,2.017,2.017,0,0,0,1.359.408A2.039,2.039,0,0,0,10,30.873a.587.587,0,0,0,.355-.485.571.571,0,0,0-.338-.468,5.164,5.164,0,0,0-1.577-.391,8.6,8.6,0,0,1-2.888-.817,1.494,1.494,0,0,1-.87-1.3,1.4,1.4,0,0,1,.446-.982A3.021,3.021,0,0,1,6.465,25.7a9,9,0,0,1,2.45-.263,6.968,6.968,0,0,1,2.913.479,2.025,2.025,0,0,1,1.192,1.528l-2.9.114a1,1,0,0,0-.487-.662A2.117,2.117,0,0,0,8.612,26.7a1.666,1.666,0,0,0-.81.154.439.439,0,0,0-.271.374c0,.107.075.2.222.289a3.34,3.34,0,0,0,1.035.247,17.708,17.708,0,0,1,2.89.6,2.965,2.965,0,0,1,1.271.747,1.459,1.459,0,0,1,.4,1,1.69,1.69,0,0,1-.531,1.193,3.328,3.328,0,0,1-1.482.83,8.612,8.612,0,0,1-2.4.282,6.679,6.679,0,0,1-3.519-.662,2.338,2.338,0,0,1-1.109-1.681" transform="translate(-2.274 -13.428)" fill="#459c23"/>
      <path id="Trazado_571648" data-name="Trazado 571648" d="M43.812.5a4.964,4.964,0,1,1-4.964,4.964A4.964,4.964,0,0,1,43.812.5" transform="translate(-20.504 -0.266)" fill="#459c23" fill-rule="evenodd"/>
      <path id="Trazado_571649" data-name="Trazado 571649" d="M33.642,59,26.267,71.46l-3.014-1.749L34.94,49.829,46.815,69.924,43.8,71.673,36.469,59c-.808-1.342-2.019-1.342-2.827,0" transform="translate(-12.273 -26.301)" fill="#459c23" fill-rule="evenodd"/>
      <path id="Trazado_571650" data-name="Trazado 571650" d="M20.575,43.285H0v3.233H12.956c1.152.041,1.6,1.107.923,2.423l-7.5,13.275L8.8,64.41Z" transform="translate(0 -22.847)" fill="#459c23" fill-rule="evenodd"/>
      <path id="Trazado_571651" data-name="Trazado 571651" d="M52.834,43.285H73.409v3.233H60.453c-1.152.041-1.6,1.107-.924,2.423l7.5,13.275L64.608,64.41Z" transform="translate(-27.886 -22.847)" fill="#459c23" fill-rule="evenodd"/>
    </g>
  </g>
</svg>
