<svg id="Grupo_845767" data-name="Grupo 845767" xmlns="http://www.w3.org/2000/svg" xmlns:xlink="http://www.w3.org/1999/xlink" width="32.42" height="30.332" viewBox="0 0 32.42 30.332">
  <defs>
    <clipPath id="clip-path">
      <rect id="Rectángulo_280629" data-name="Rectángulo 280629" width="32.42" height="30.332" fill="none"/>
    </clipPath>
  </defs>
  <g id="Grupo_845766" data-name="Grupo 845766" clip-path="url(#clip-path)">
    <path id="Trazado_571446" data-name="Trazado 571446" d="M32.249,29.474q-4.083-6.382-8.164-12.766c-.471-.737-.94-1.476-1.414-2.212-.277-.429-.61-.433-.888-.014-.122.185-.24.372-.359.559l-1.684,2.63c-.1-.036-.119-.114-.154-.176q-1.425-2.554-2.85-5.109a.761.761,0,0,1-.082-.394c0-.823.016-1.647-.007-2.469-.009-.312.085-.379.385-.378,3.145.012,6.29.007,9.434.007.252,0,.522.041.656-.256s-.067-.471-.239-.66c-.655-.716-1.3-1.438-1.964-2.149-.131-.141-.164-.23-.009-.38.25-.242.474-.509.709-.767.455-.5.913-.995,1.364-1.5.264-.294.231-.615-.065-.77a.818.818,0,0,0-.4-.055H16.7a.448.448,0,0,1,.168-.148A1.316,1.316,0,0,0,17.493.98,1.328,1.328,0,0,0,14.924,1a1.289,1.289,0,0,0,.656,1.471.348.348,0,0,1,.191.377q0,4.575,0,9.149a.822.822,0,0,1-.1.42q-1.389,2.484-2.772,4.972c-.054.1-.082.219-.209.284-.059-.087-.119-.173-.175-.261l-1.823-2.852c-.33-.516-.644-.517-.974,0Q5,21.933.288,29.3c-.145.227-.405.443-.229.768s.505.255.791.255q15.354,0,30.709,0c.074,0,.148,0,.222,0,.223-.009.448-.011.58-.242s.01-.42-.112-.611M16.9,3.5c2.88.008,5.76.005,8.64.006.038,0,.076.006.173.013-.529.582-1.019,1.127-1.517,1.666-.642.694-.645.692-.006,1.4.417.462.837.921,1.255,1.382a.552.552,0,0,1,.183.265.478.478,0,0,1-.3.034c-2.774,0-5.549,0-8.323.007-.263,0-.362-.044-.358-.34.018-1.382.01-2.764.006-4.146,0-.178.006-.287.244-.286M15.77,1.31a.443.443,0,1,1,.435.435.43.43,0,0,1-.435-.435M6.047,29.419c-1.57,0-3.14,0-4.78,0,.558-.876,1.077-1.692,1.6-2.506l7.106-11.1c.228-.356.229-.355.464.011.551.861,1.1,1.724,1.656,2.58a.356.356,0,0,1,.012.425Q9.21,24.012,6.325,29.206c-.063.113-.118.214-.278.213m1.188-.028,8.978-16.13,8.978,16.13Zm19.166.03c-.192,0-.247-.12-.319-.251Q23.394,24.335,20.7,19.5c-.167-.3-.481-.6-.449-.914.03-.3.324-.576.505-.86.475-.746.953-1.491,1.461-2.285l8.939,13.975c-1.639,0-3.2,0-4.76,0" transform="translate(0 0)"/>
  </g>
</svg>
