<svg id="Grupo_845773" data-name="Grupo 845773" xmlns="http://www.w3.org/2000/svg" xmlns:xlink="http://www.w3.org/1999/xlink" width="22.964" height="32.501" viewBox="0 0 22.964 32.501">
  <defs>
    <clipPath id="clip-path">
      <rect id="Rectángulo_280636" data-name="Rectángulo 280636" width="22.964" height="32.501" fill="none"/>
    </clipPath>
  </defs>
  <g id="Grupo_845772" data-name="Grupo 845772" clip-path="url(#clip-path)">
    <path id="Trazado_571529" data-name="Trazado 571529" d="M20.19,21.482q-2.563-1-5.13-1.989c-.708-.273-.7-.268-.717-1.017a.733.733,0,0,1,.3-.636,4.461,4.461,0,0,0,1.606-3.225c.019-.341.121-.4.432-.4A1.9,1.9,0,0,0,18.457,13.1a1.906,1.906,0,0,0-.155-2.068,1.05,1.05,0,0,1-.209-.683c.018-1,.007-2.01.009-3.015,0-.109-.036-.225.116-.293.382-.173.755-.364,1.165-.564v.387q0,1.92,0,3.84c0,.4.169.622.468.63s.482-.208.483-.606c0-1.872,0-3.745,0-5.617a1.608,1.608,0,0,0-.979-1.565Q16.03,1.922,12.706.3A2.622,2.622,0,0,0,10.3.29Q6.941,1.923,3.589,3.566A1.524,1.524,0,0,0,2.66,5.029a1.538,1.538,0,0,0,.93,1.432c.357.181.716.361,1.083.521a.331.331,0,0,1,.22.363q0,1.634.017,3.268a.307.307,0,0,1-.081.223,2.036,2.036,0,0,0,1.623,3.382c.229-.007.274.07.281.284A4.226,4.226,0,0,0,8.11,17.6a1.463,1.463,0,0,1,.539,1.331.361.361,0,0,1-.273.376c-1.888.729-3.784,1.439-5.652,2.216A4.075,4.075,0,0,0,.083,25.108c-.159,1.854-.038,3.721-.051,5.582A1.647,1.647,0,0,0,1.844,32.5h8.314a1.533,1.533,0,0,0,.285-.007.473.473,0,0,0,.005-.937,1.531,1.531,0,0,0-.285-.007c-1.767,0-3.533,0-5.3.005-.228,0-.3-.042-.3-.287.012-1.968.007-3.935.006-5.9a1.407,1.407,0,0,0-.012-.316.449.449,0,0,0-.474-.385.445.445,0,0,0-.461.432,2.486,2.486,0,0,0,0,.285c0,1.957-.006,3.914.007,5.871,0,.26-.078.311-.315.3-.507-.017-1.015,0-1.523-.006-.54,0-.8-.253-.806-.791-.005-1.714-.009-3.427,0-5.141a3.5,3.5,0,0,1,1.324-2.764.411.411,0,0,1,.525-.066q3.2,1.593,6.414,3.156c.271.132.465.246.391.594a.928.928,0,0,0,.049.405,1.821,1.821,0,0,0,3.584-.506c0-.177-.007-.3.2-.4q3.37-1.64,6.728-3.305a.3.3,0,0,1,.37.031,3.578,3.578,0,0,1,1.341,2.018,8.6,8.6,0,0,1,.1,1.864c.009.355.181.552.473.551s.468-.2.476-.555.009-.677,0-1.015a4.426,4.426,0,0,0-2.769-4.14m-3.645-8.21c-.228.057-.3-.054-.283-.3.021-.368.015-.738,0-1.107-.007-.186.031-.267.239-.253a1.72,1.72,0,0,0,.84-.094c.168-.076.2.07.25.161a1.085,1.085,0,0,1-1.047,1.595M4.114,5.659c-.284-.138-.508-.3-.5-.654,0-.338.215-.5.489-.631q3.271-1.589,6.535-3.192A1.792,1.792,0,0,1,12.3,1.155q3.324,1.624,6.646,3.252c.04.02.107.021.113.1-.094.066-.2.031-.3.031-2.147,0-4.294,0-6.441,0-.2,0-.353.007-.426-.244a.392.392,0,0,0-.47-.237.405.405,0,0,0-.386.36,4.718,4.718,0,0,0,0,1.107.42.42,0,0,0,.38.372.416.416,0,0,0,.477-.233.268.268,0,0,1,.287-.178q3.411.006,6.821,0a.564.564,0,0,1,.114.049L15.786,7.169c-1.117.546-2.24,1.082-3.35,1.643a1.954,1.954,0,0,1-1.875,0c-2.143-1.064-4.3-2.108-6.447-3.154m2.613,6.16c-.015.21,0,.422,0,.633q0,.19,0,.38c0,.479,0,.479-.486.436a1.084,1.084,0,0,1-.831-1.609c.048-.082.083-.215.231-.148a1.886,1.886,0,0,0,.871.1c.159,0,.23.034.218.208m-.474-1.154c-.3,0-.418-.112-.415-.413.011-.877,0-1.754,0-2.692L8.522,8.871c.578.282,1.157.561,1.733.845a2.662,2.662,0,0,0,2.466.006q2.045-1,4.092-1.994l.335-.161c0,.949,0,1.857,0,2.765,0,.271-.165.332-.4.331-.835,0-1.67.007-2.505,0a3.593,3.593,0,0,0-2.594.984c-.141.132-.2.1-.325-.013a3.588,3.588,0,0,0-2.537-.97c-.846.007-1.691,0-2.537,0m1.431,3.752c-.022-.866,0-1.734-.011-2.6,0-.136.01-.213.183-.207.422.015.847-.015,1.268.017a2.513,2.513,0,0,1,1.557.7,1,1,0,0,0,1.62.012,2.575,2.575,0,0,1,1.8-.726c.328,0,.656.008.983,0,.174-.007.237.039.231.224-.013.475,0,.951,0,1.427a6.65,6.65,0,0,1-.247,2.377,3.815,3.815,0,0,1-4.145,2.371,3.754,3.754,0,0,1-3.239-3.593M9.6,18.636A5.47,5.47,0,0,0,11.49,19a4.941,4.941,0,0,0,1.88-.356,7.351,7.351,0,0,0,.1,1.027c.014.043-.088.132-.146.19-.321.321-.647.636-.967.959a1.534,1.534,0,0,0-.487,1.066c0,.209-.075.253-.277.264-.321.016-.49-.031-.491-.421a1.368,1.368,0,0,0-.485-.932q-.484-.479-.966-.959c-.064-.064-.172-.114-.126-.231a4.017,4.017,0,0,0,.083-.971m-.272,6.295L3.7,22.155c.8-.313,1.544-.6,2.284-.893a.171.171,0,0,1,.218.06q1.566,1.765,3.133,3.528c.01.011,0,.039,0,.08m-.164-1.794c-.241.013-.409-.38-.606-.6-.506-.553-1-1.118-1.509-1.692.5-.2.983-.385,1.46-.578a.226.226,0,0,1,.28.062c.387.391.789.767,1.168,1.165a.726.726,0,0,1-.067,1.116c-.233.2-.475.51-.726.524m2.3,4.219a.874.874,0,1,1,.851-.884.868.868,0,0,1-.851.884m1.591-3.373c-.228.249-.455.5-.675.756-.087.1-.165.087-.276.044a1.747,1.747,0,0,0-1.327,0,.219.219,0,0,1-.3-.076c-.177-.21-.353-.422-.549-.614-.152-.149-.108-.227.04-.338.244-.183.477-.383.7-.587a.344.344,0,0,1,.26-.079H11.6c.642-.224.98.4,1.458.716.086.057.062.108,0,.173m0-1.395a.722.722,0,0,1-.054-1.07c.384-.407.793-.789,1.189-1.185a.2.2,0,0,1,.251-.056c.458.185.919.359,1.421.554-.674.755-1.321,1.478-1.964,2.2-.084.095-.142.131-.253.032-.189-.168-.4-.311-.588-.48m.57,2.31-.054-.066q.566-.637,1.132-1.273.98-1.1,1.96-2.2c.087-.1.15-.171.312-.1.727.3,1.462.573,2.26.882L13.635,24.9" transform="translate(0 0)"/>
    <path id="Trazado_571530" data-name="Trazado 571530" d="M105.906,198c-.3,0-.465.2-.468.587,0,.55,0,1.1,0,1.65,0,.583-.253.831-.829.833-.508,0-1.016-.014-1.523.006-.238.009-.3-.055-.294-.293.011-1.851.006-3.7.006-5.553,0-.19.007-.381,0-.571a.468.468,0,0,0-.452-.479.479.479,0,0,0-.495.471c-.007.084,0,.169,0,.254,0,1.925-.01,3.85.009,5.775,0,.343-.1.4-.415.4-1.724-.016-3.448-.008-5.172-.008a1.7,1.7,0,0,0-.285.006.473.473,0,0,0,.01.94,1.669,1.669,0,0,0,.253.005h4.22q2.094,0,4.189,0a1.634,1.634,0,0,0,1.732-1.7c.011-.581.006-1.163,0-1.745,0-.375-.182-.582-.482-.58" transform="translate(-83.43 -169.522)"/>
  </g>
</svg>
