<svg id="Grupo_845791" data-name="Grupo 845791" xmlns="http://www.w3.org/2000/svg" xmlns:xlink="http://www.w3.org/1999/xlink" width="46.845" height="46.758" viewBox="0 0 46.845 46.758">
  <defs>
    <clipPath id="clip-path">
      <rect id="Rectángulo_280674" data-name="Rectángulo 280674" width="46.845" height="46.758" fill="none"/>
    </clipPath>
  </defs>
  <g id="Grupo_845790" data-name="Grupo 845790" clip-path="url(#clip-path)">
    <path id="Trazado_571652" data-name="Trazado 571652" d="M72.782,94.346a22.738,22.738,0,0,0,6.673-5.568,18.585,18.585,0,0,0-12.149-13.11c-.134-.045-.347-.029-.367-.207-.017-.146.177-.187.282-.268a9.519,9.519,0,0,0,3.8-6.372A9.369,9.369,0,0,0,68.8,61.187a9.232,9.232,0,0,0-6.277-3.344A9.656,9.656,0,0,0,51.8,67.688a9.449,9.449,0,0,0,3.928,7.531c.094.072.261.112.247.242-.017.162-.2.152-.325.192a18.387,18.387,0,0,0-8.178,5.44,17.583,17.583,0,0,0-3.83,7.075c-.056.205-.123.407-.186.611h0a23.026,23.026,0,0,0,6.914,5.7,23.345,23.345,0,0,0,7.244,2.483c.641.11,1.294.15,1.942.22a.8.8,0,0,1,.438.089h2.922c.658-.087,1.316-.173,1.973-.263a22.461,22.461,0,0,0,7.891-2.66" transform="translate(-37.989 -50.51)" fill="#bbb7b0"/>
    <path id="Trazado_571653" data-name="Trazado 571653" d="M47.062,19.859A23.494,23.494,0,0,0,33.475,2.034,22.262,22.262,0,0,0,26.739.179,24.038,24.038,0,0,0,23.47,0a23.236,23.236,0,0,0-7.527,1.411A22.952,22.952,0,0,0,9.7,4.854a23.5,23.5,0,0,0-6.407,7.6A23.181,23.181,0,0,0,.783,20.218a18.977,18.977,0,0,0-.123,4.9,21.174,21.174,0,0,0,1.334,6.29A23.163,23.163,0,0,0,5.4,37.6c.145.187.3.367.452.548A11.814,11.814,0,0,1,7,34.759a18.582,18.582,0,0,1,6.116-7.291,17.116,17.116,0,0,1,4.641-2.4.5.5,0,0,0,.3-.166c-.079-.216-.313-.294-.474-.436a9.823,9.823,0,0,1-3.354-5.905,9.584,9.584,0,0,1,2.143-7.923,9.344,9.344,0,0,1,6.4-3.484,9.821,9.821,0,0,1,10.949,8.72,9.683,9.683,0,0,1-3.66,8.781c-.088.074-.244.119-.208.266.027.114.171.111.268.144a18.591,18.591,0,0,1,8.013,5.457,17.863,17.863,0,0,1,3.781,6.955,3.674,3.674,0,0,1,.13.669A22.329,22.329,0,0,0,45.4,32.665a23.54,23.54,0,0,0,1.717-6.075,11.682,11.682,0,0,1,.208-1.565V21.738a.406.406,0,0,1-.053-.212c-.121-.548-.125-1.113-.211-1.667" transform="translate(-0.481 0)" fill="#ece7e2"/>
    <path id="Trazado_571654" data-name="Trazado 571654" d="M78.76,86.687a17.86,17.86,0,0,0-3.781-6.955,18.591,18.591,0,0,0-8.013-5.457c-.1-.033-.24-.03-.268-.144-.035-.146.121-.191.209-.266a9.683,9.683,0,0,0,3.66-8.781,9.821,9.821,0,0,0-10.949-8.72,9.344,9.344,0,0,0-6.4,3.484,9.585,9.585,0,0,0-2.143,7.923,9.823,9.823,0,0,0,3.354,5.905c.16.142.4.22.474.436a.5.5,0,0,1-.3.166,17.12,17.12,0,0,0-4.641,2.4,18.58,18.58,0,0,0-6.116,7.291,11.808,11.808,0,0,0-1.149,3.393l.1.115c.062-.2.129-.406.186-.611a17.582,17.582,0,0,1,3.83-7.075,18.388,18.388,0,0,1,8.178-5.44c.122-.04.308-.029.325-.191.014-.131-.153-.17-.247-.242a9.448,9.448,0,0,1-3.928-7.531,9.656,9.656,0,0,1,10.727-9.844,9.232,9.232,0,0,1,6.277,3.344,9.368,9.368,0,0,1,2.214,7.633,9.519,9.519,0,0,1-3.8,6.372c-.1.081-.3.123-.282.268.02.178.233.162.367.207a18.585,18.585,0,0,1,12.149,13.11c.035-.041.07-.082.1-.123a3.663,3.663,0,0,0-.13-.67" transform="translate(-37.318 -49.211)" fill="#ece7e2"/>
    <path id="Trazado_571655" data-name="Trazado 571655" d="M42.569,303.279a.5.5,0,0,0,.112-.005l-.1-.115c-.005.04-.011.08-.015.12" transform="translate(-37.212 -265.006)" fill="#fff"/>
    <path id="Trazado_571656" data-name="Trazado 571656" d="M.093,199.99c0-.019,0-.038,0-.058L0,199.978a.092.092,0,0,0,.093.011" transform="translate(0 -174.77)" fill="#fff"/>
    <path id="Trazado_571657" data-name="Trazado 571657" d="M.815,199.586l-.086.043c0,.019,0,.038,0,.058.036-.019.058-.066.086-.1" transform="translate(-0.637 -174.468)" fill="#fff"/>
    <path id="Trazado_571658" data-name="Trazado 571658" d="M329.489,303.214a.588.588,0,0,0,.114,0c0-.04-.006-.08-.01-.12l-.1.123" transform="translate(-288.022 -264.946)" fill="#fff"/>
  </g>
</svg>
