<svg id="Grupo_845764" data-name="Grupo 845764" xmlns="http://www.w3.org/2000/svg" xmlns:xlink="http://www.w3.org/1999/xlink" width="32.42" height="21.715" viewBox="0 0 32.42 21.715">
  <defs>
    <clipPath id="clip-path">
      <rect id="Rectángulo_280628" data-name="Rectángulo 280628" width="32.42" height="21.715" fill="none"/>
    </clipPath>
  </defs>
  <g id="Grupo_845763" data-name="Grupo 845763" clip-path="url(#clip-path)">
    <path id="Trazado_571443" data-name="Trazado 571443" d="M31.71,7.153a1.865,1.865,0,0,0-.195-.011,12.99,12.99,0,0,0-3.279.46A16.656,16.656,0,0,0,22.987,10.2c-.956.681-1.864,1.423-2.8,2.132a4.632,4.632,0,0,1-1.224.708.816.816,0,0,1-1.112-.642,1.423,1.423,0,0,1-.024-.353,7.108,7.108,0,0,1,.257-1.519.745.745,0,0,0-.911-.98,2.011,2.011,0,0,0-.954.519,13.463,13.463,0,0,0-1.311,1.4,17.127,17.127,0,0,1-2.2,2.247,2.688,2.688,0,0,1-.97.538.807.807,0,0,1-1.069-.6,2.749,2.749,0,0,1-.015-1.267,15.4,15.4,0,0,1,1.2-3.643,3.964,3.964,0,0,0,.287-.685.722.722,0,0,0-.769-.911,1.14,1.14,0,0,0-.639.282A5.3,5.3,0,0,0,9.725,8.671c-1.076,1.615-2.012,3.316-3,4.985a54.642,54.642,0,0,1-3.3,5.131,7.043,7.043,0,0,1-1.59,1.57,3.89,3.89,0,0,1-.375-1.45A14.605,14.605,0,0,1,1.625,16.5a33.078,33.078,0,0,1,.765-3.536A52.388,52.388,0,0,1,5.627,3.748a9.143,9.143,0,0,1,1.386-2.28A2.154,2.154,0,0,0,7.3,1.111a.7.7,0,0,0-.072-.87.729.729,0,0,0-1.089,0,5.464,5.464,0,0,0-.811,1.031A23.5,23.5,0,0,0,3.53,4.79a55.7,55.7,0,0,0-2.954,9.2A20.632,20.632,0,0,0,0,18.777a4.678,4.678,0,0,0,.4,1.95,1.585,1.585,0,0,0,1.67.977,2.288,2.288,0,0,0,1.212-.588A10.185,10.185,0,0,0,4.893,19.3c1.089-1.479,2.012-3.065,2.956-4.637.3-.493.589-.99.893-1.5a3.574,3.574,0,0,1,.479.886,2.1,2.1,0,0,0,2.162,1.713,3.463,3.463,0,0,0,2.024-.712,10.924,10.924,0,0,0,1.875-1.758c.3-.327.591-.656.9-1,.034.082.059.141.083.2a6.107,6.107,0,0,0,.5,1.056,2.016,2.016,0,0,0,2.415.937,5.675,5.675,0,0,0,1.828-.959c1.052-.769,2.089-1.557,3.147-2.318a13.706,13.706,0,0,1,4.726-2.25,11.989,11.989,0,0,1,2.778-.342.715.715,0,0,0,.762-.7.7.7,0,0,0-.709-.764" transform="translate(0 0)"/>
  </g>
</svg>
