<svg id="Grupo_845774" data-name="Grupo 845774" xmlns="http://www.w3.org/2000/svg" xmlns:xlink="http://www.w3.org/1999/xlink" width="34.07" height="32.501" viewBox="0 0 34.07 32.501">
  <defs>
    <clipPath id="clip-path">
      <rect id="Rectángulo_280638" data-name="Rectángulo 280638" width="34.07" height="32.501" fill="none"/>
    </clipPath>
  </defs>
  <g id="Grupo_845776" data-name="Grupo 845776" clip-path="url(#clip-path)">
    <path id="Trazado_571550" data-name="Trazado 571550" d="M31.837,17.943c-.954-.059-1.911-.028-2.867-.012-.371.006-.482-.109-.473-.484.015-.6.034-1.2-.01-1.8a.578.578,0,0,0-.663-.606c-.65-.01-1.3-.007-1.95-.007-1.391,0-2.783,0-4.174.007a.594.594,0,0,0-.673.664c-.011.386-.011.773-.012,1.159,0,.247.011.494.008.74,0,.231-.1.323-.327.322-.414,0-.827-.007-1.241,0-.13,0-.136-.032-.1-.141a6.49,6.49,0,0,0,.438-2.261q0-3.61-.01-7.219A7.1,7.1,0,0,0,19.7,7.164a8.232,8.232,0,0,0-3.653-5.707A8.849,8.849,0,0,0,11.863.083,20.864,20.864,0,0,0,7.029.221,7.8,7.8,0,0,0,2.207,2.763,8.219,8.219,0,0,0,.042,7.691C-.022,8.383.007,9.076,0,9.768c-.01,1.971,0,3.943.006,5.914a4.672,4.672,0,0,0,.086.88A6.054,6.054,0,0,0,2.85,20.6a.594.594,0,0,0,.742.043,4.615,4.615,0,0,1,1.3-.5c-.2-.057-.365-.1-.534-.157a2.867,2.867,0,0,1-.484-.215,4.579,4.579,0,0,1-2.636-4.016c-.049-.982-.026-1.964-.03-2.947-.006-1.472,0-2.944.009-4.416a6.714,6.714,0,0,1,.067-.93,7,7,0,0,1,2.2-4.258A6.891,6.891,0,0,1,7.8,1.338c1.232-.085,2.467-.065,3.7-.038a6.869,6.869,0,0,1,3.96,1.233,6.922,6.922,0,0,1,3.117,5.861c0,.988,0,1.977,0,2.965,0,1.273-.016,2.547.006,3.82a5.544,5.544,0,0,1-.455,2.395.575.575,0,0,1-.485.368,2.363,2.363,0,0,0-.666.177,1.828,1.828,0,0,0-1.077,1.39.591.591,0,0,1-.441.5c-.159.046-.318.1-.5.151.207.062.391.112.572.174a.414.414,0,0,1,.315.449c-.024.891-.017,1.782-.007,2.673a6.255,6.255,0,0,0,.069,1.381,1.816,1.816,0,0,0,.48,1.142c.008.007.022.014.022.022.013.2.178.293.318.381a.63.63,0,0,1,.308.592c0,1.133-.009,2.267,0,3.4a2.086,2.086,0,0,0,.623,1.555,2.177,2.177,0,0,0,1.577.574q5.455.005,10.911,0a3.726,3.726,0,0,0,.514-.029,2.029,2.029,0,0,0,1.36-.716,2.36,2.36,0,0,0,.479-1.551c0-1.021-.006-2.041-.009-3.061a.873.873,0,0,1,.36-.829,1.272,1.272,0,0,0,.457-.526,2.954,2.954,0,0,0,.351-1.341c.01-1.52.023-3.041,0-4.561a1.891,1.891,0,0,0-1.824-1.944m-9.612-1.389c0-.217.117-.32.353-.32q1.095,0,2.19,0h2.142c.3,0,.38.079.38.379a7.71,7.71,0,0,1,.034.85c-.038.348-.211.525-.561.5-1.319-.086-2.639-.024-3.959-.044-.086,0-.172.005-.257,0-.224-.016-.321-.115-.323-.336q0-.515,0-1.03M31.28,30.373a.829.829,0,0,1-.926.912c-.892,0-1.783,0-2.675,0h-8.4a1.958,1.958,0,0,1-.289-.014c-.516-.078-.746-.367-.75-.949,0-.564,0-1.128,0-1.692,0-.483-.008-.966-.01-1.45,0-.309.106-.413.416-.414h1.9c.289,0,.388.107.363.395a1.182,1.182,0,0,0,.029.368.567.567,0,0,0,.669.437.579.579,0,0,0,.505-.639c-.089-.449.139-.577.562-.571,1.4.017,2.793.008,4.189.009.064,0,.129,0,.193,0a.331.331,0,0,1,.348.343c.01.118,0,.238.016.353a.573.573,0,0,0,.622.523.6.6,0,0,0,.553-.6c0-.021,0-.043,0-.064,0-.436.139-.564.572-.558.585.007,1.17,0,1.756.007.246,0,.358.107.358.35,0,1.085,0,2.17-.007,3.255m1.178-6.148a2.284,2.284,0,0,1-.135.82.719.719,0,0,1-.735.514c-.79,0-1.579,0-2.369,0-.107,0-.215.013-.321,0-.208-.02-.291-.12-.291-.33,0-.183.008-.366,0-.547a.607.607,0,0,0-.6-.607.619.619,0,0,0-.59.64c-.006.15-.012.3-.03.449a.385.385,0,0,1-.387.377c-.091.009-.182.013-.273.014H23.172c-.215,0-.429.012-.644.009-.325-.005-.43-.131-.407-.452a2.784,2.784,0,0,0,0-.418.616.616,0,0,0-.646-.614.627.627,0,0,0-.558.715c.009.134.022.268.021.4a.362.362,0,0,1-.325.376.707.707,0,0,1-.176.013c-.8-.064-1.61-.016-2.415-.032a2.4,2.4,0,0,1-.241-.016.653.653,0,0,1-.549-.415,2.585,2.585,0,0,1-.18-1.055q0-1.982,0-3.964a2.543,2.543,0,0,1,.019-.305.7.7,0,0,1,.612-.648,1.735,1.735,0,0,1,.336-.027H31.475c.739,0,.983.246.983.986q0,2.055,0,4.11" transform="translate(0 0)"/>
    <path id="Trazado_571551" data-name="Trazado 571551" d="M36.884,38.981a11.443,11.443,0,0,1-3.873-1.965,18.805,18.805,0,0,1-1.633-1.457c-.343-.337-.553-.349-.913-.03-.225.2-.439.411-.649.627A9.87,9.87,0,0,1,28.1,37.533a11.756,11.756,0,0,1-3.243,1.449c-.538.151-.631.278-.631.842V42.4c0,.757,0,1.514,0,2.272a4.117,4.117,0,0,0,.146,1.178,5.053,5.053,0,0,0,4.054,3.809c.394.082.539.235.561.638,0,.011,0,.022,0,.032.01.113.058.174.185.167.172-.009.344,0,.516,0,.233,0,.229,0,.235-.229a5.585,5.585,0,0,1,.025-.962.42.42,0,0,0-.174-.444.633.633,0,0,0-.4-.112,5.007,5.007,0,0,1-1.049-.148,4.1,4.1,0,0,1-3.083-3.994c-.013-1.38,0-2.761,0-4.141a.617.617,0,0,1,.492-.68,12.77,12.77,0,0,0,4.223-2.368c.233-.2.445-.42.676-.62a.373.373,0,0,1,.514-.018,2.2,2.2,0,0,1,.176.141c.5.434,1.008.869,1.554,1.253A12.9,12.9,0,0,0,36.06,39.79a.529.529,0,0,1,.431.611c0,1.209.008,2.417,0,3.626a8.048,8.048,0,0,1-.06,1.285A4.1,4.1,0,0,1,32.5,48.724a.924.924,0,0,0-.658.254c-.076.074-.127.147-.062.262a.5.5,0,0,1,.038.252c0,.285,0,.569,0,.854,0,.087.02.146.123.147.2,0,.4.016.6.011.182,0,.236-.058.213-.242-.041-.332.166-.5.475-.572a7.637,7.637,0,0,0,.744-.2A5.022,5.022,0,0,0,37.46,45.3a8.623,8.623,0,0,0,.055-1.51q0-1.982,0-3.965c0-.569-.089-.689-.632-.846" transform="translate(-20.971 -30.556)"/>
    <path id="Trazado_571552" data-name="Trazado 571552" d="M168.973,8.159a6.1,6.1,0,1,0,6,6.117,6.105,6.105,0,0,0-6-6.117m-.112,10.978a4.871,4.871,0,0,1-4.89-4.886,4.9,4.9,0,1,1,9.794.065,4.871,4.871,0,0,1-4.9,4.821" transform="translate(-140.903 -7.063)"/>
    <path id="Trazado_571553" data-name="Trazado 571553" d="M22.705,155.005a.86.86,0,0,1-.1,0l-12.229.011c-.054,0-.108,0-.161,0-.274-.025-.37-.157-.307-.423a1.39,1.39,0,0,1,.043-.138,3.637,3.637,0,0,1,3.511-2.482q3.94,0,7.879,0c.091,0,.182.008.273.016a3.6,3.6,0,0,1,1.255.377c0-.322,0-.626,0-.931,0-.235-.041-.3-.272-.369s-.5-.119-.756-.179l.156.2a.33.33,0,0,1-.151-.061,1.8,1.8,0,0,0-1.138-.286,4.222,4.222,0,0,1-1.245-.034.093.093,0,0,0-.06.015.812.812,0,0,1-.5.048c-.2-.028-.4.014-.594-.026a.729.729,0,0,0-.549.029.11.11,0,0,1-.064,0,2.305,2.305,0,0,0-.53.017.645.645,0,0,1-.318-.02.7.7,0,0,0-.37-.028,6.1,6.1,0,0,1-1.157-.008,1.855,1.855,0,0,0-.485.007,7.107,7.107,0,0,1-1.126.014.76.76,0,0,0-.207,0,.928.928,0,0,1-.408-.012c-.133-.024-.232.136-.383.156a4.531,4.531,0,0,0-1.611.571,3.7,3.7,0,0,0-.655.3,4.875,4.875,0,0,0-1.883,3.79.576.576,0,0,0,.634.661c.037,0,.075,0,.113,0H23.215a2.31,2.31,0,0,1-.261-1.012c-.015-.189-.1-.221-.249-.2" transform="translate(-7.412 -130.457)"/>
    <path id="Trazado_571554" data-name="Trazado 571554" d="M65.886,111.076a.565.565,0,0,0-.83-.075.718.718,0,0,1-1.021-.008.607.607,0,0,0-.435-.132.59.59,0,0,0-.5.406.559.559,0,0,0,.149.62,1.758,1.758,0,0,0,1.3.537,1.776,1.776,0,0,0,1.255-.494.606.606,0,0,0,.076-.853" transform="translate(-54.594 -95.965)"/>
    <path id="Trazado_571555" data-name="Trazado 571555" d="M196.842,41.414a9.439,9.439,0,0,0-.728.9c-.3.43-.509.454-.89.09a1.131,1.131,0,0,0-.4-.263.574.574,0,0,0-.776.39.591.591,0,0,0,.25.662c.378.3.765.588,1.149.879a.484.484,0,0,0,.357.111.514.514,0,0,0,.458-.192c.5-.6,1-1.2,1.494-1.812a.58.58,0,0,0-.07-.846.586.586,0,0,0-.846.081" transform="translate(-167.96 -35.655)"/>
  </g>
</svg>
