<?xml version="1.0" encoding="utf-8"?>
<!-- Generator: Adobe Illustrator 28.0.0, SVG Export Plug-In . SVG Version: 6.00 Build 0)  -->
<svg version="1.1" id="Capa_1" xmlns="http://www.w3.org/2000/svg" xmlns:xlink="http://www.w3.org/1999/xlink" x="0px" y="0px"
	 viewBox="0 0 45 45" style="enable-background:new 0 0 45 45;" xml:space="preserve">
<style type="text/css">
	.st0{fill:#824EE3;}
	.st1{fill:#FFFFFF;stroke:#FFFFFF;stroke-width:0.25;stroke-miterlimit:10;}
</style>
<path id="Trazado_886" class="st0" d="M0,0h45v45H0V0z"/>
<g>
	<path class="st1" d="M5.6,15.2c0-1.1,0.9-2.1,2-2.2c1.1-1.9,2.6-3.6,4.4-4.8c0.2-0.2,0.5-0.1,0.7,0.1c0.2,0.2,0.1,0.5-0.1,0.7
		c-1.5,1.1-2.8,2.4-3.8,4H21v-0.9c0-1.2,0.9-2.1,2.1-2.1h6.6c-2.5-2.2-5.8-3.5-9.2-3.5c-2.1,0-4.1,0.5-6,1.4c-0.2,0.1-0.5,0-0.7-0.2
		c-0.1-0.2,0-0.5,0.2-0.7c2-1,4.2-1.4,6.4-1.4c4.1,0,7.9,1.7,10.7,4.5h3.9c2.4,0,4.4,2,4.4,4.4v3.2c0,2.3-1.8,4.2-4,4.3
		c-0.1,0-0.2,0-2.1,0l1.3,2.5c0.6,1.2,0.2,2.7-0.9,3.5l-1,0.7c-0.4,0.3-0.5,0.7-0.3,1.1l0.3,0.7c0.1,0.3,0.1,0.7,0,1
		c-0.1,0.3-0.4,0.5-0.7,0.7l-0.1,0c-0.1,0-0.2,0.2-0.2,0.3l0.3,1.5c0.2,0.7,0,1.4-0.5,1.9c-0.5,0.5-1.2,0.7-1.9,0.6l-3-0.5
		c0,0.3,0.1,0.6,0.2,0.9c0.4,1.3-0.6,2.5-1.9,2.5h-1.9c-0.3,0-0.5-0.2-0.5-0.5c0-0.3,0.2-0.5,0.5-0.5h1.9c0.7,0,1.2-0.6,1-1.3
		c-0.1-0.5-0.2-0.9-0.2-1.3c-1.9-0.5-3.5-1.8-4.4-3.6c-0.1-0.2,0-0.5,0.2-0.7c0.2-0.1,0.5,0,0.7,0.2c0.9,1.7,2.5,2.9,4.4,3.3
		l3.3,0.6c0.4,0.1,0.7-0.1,1-0.3c0.3-0.3,0.4-0.6,0.3-1l-0.3-1.5c-0.1-0.6,0.2-1.2,0.8-1.4l0.1,0c0.1,0,0.2-0.2,0.2-0.3l-0.3-0.7
		c-0.3-0.8-0.1-1.8,0.7-2.3l1-0.7c0.7-0.5,0.9-1.4,0.6-2.2l-1.5-3c-1.8,0-4.6,0-9,0C22,22,21,21.1,21,19.9V19h-2.4
		c0.3,0.6,0.4,1.3,0.4,2c0,2.7-2.2,5-5,5s-5-2.2-5-5c0-0.7,0.1-1.4,0.4-2H7.8c-0.4,0-0.8-0.1-1.1-0.3c-0.5,4.1,0.8,8,3.3,11
		c1,1.1,1.5,2.6,1.5,4v0.7H18c0.3,0,0.5,0.2,0.5,0.5c0,0.3-0.2,0.5-0.5,0.5h-6.5v0.6c0,1.3,1.1,2.3,2.3,2.3h6.6
		c0.3,0,0.5,0.2,0.5,0.5s-0.2,0.5-0.5,0.5h-6.6c-1.8,0-3.3-1.5-3.3-3.3v-2.3c0-1.3-0.5-2.5-1.3-3.4c-3-3.4-4.3-8-3.5-12.5
		c-0.2-0.3-0.2-0.6-0.2-1L5.6,15.2L5.6,15.2z M22,19.9c0,0.6,0.5,1.1,1.1,1.1c11.6,0,12,0,12.2,0l0,0c1.7-0.1,3.1-1.6,3.1-3.4v-3.2
		c0-1.9-1.5-3.4-3.4-3.4H23.1c-0.6,0-1.1,0.5-1.1,1.1v6.3V19.9z M14,25c2.2,0,4-1.8,4-4c0-2.2-1.8-4-4-4c-2.2,0-4,1.8-4,4
		C10.1,23.2,11.8,25,14,25z M7.8,18h2.3c0.9-1.2,2.4-2,4-2c1.6,0,3,0.7,4,2h3v-4C8.2,14,7.9,14,7.8,14c-0.7,0-1.2,0.5-1.2,1.2v1.6
		C6.6,17.5,7.1,18,7.8,18L7.8,18z"/>
	<path class="st1" d="M14,18.5c1.4,0,2.5,1.1,2.5,2.5c0,1.4-1.1,2.5-2.5,2.5s-2.5-1.1-2.5-2.5S12.7,18.5,14,18.5z M14,22.5
		c0.8,0,1.5-0.7,1.5-1.5s-0.7-1.5-1.5-1.5c-0.8,0-1.5,0.7-1.5,1.5C12.5,21.8,13.2,22.5,14,22.5z"/>
	<path class="st1" d="M28,12.5h7.5c0.8,0,1.5,0.7,1.5,1.5s-0.7,1.5-1.5,1.5H28c-0.8,0-1.5-0.7-1.5-1.5C26.5,13.2,27.2,12.5,28,12.5z
		 M28,14.5h7.5c0.3,0,0.5-0.2,0.5-0.5s-0.2-0.5-0.5-0.5H28c-0.3,0-0.5,0.2-0.5,0.5S27.7,14.5,28,14.5z"/>
</g>
</svg>
