<svg id="Grupo_845782" data-name="Grupo 845782" xmlns="http://www.w3.org/2000/svg" xmlns:xlink="http://www.w3.org/1999/xlink" width="32.513" height="32.501" viewBox="0 0 32.513 32.501">
  <defs>
    <clipPath id="clip-path">
      <rect id="Rectángulo_280643" data-name="Rectángulo 280643" width="32.513" height="32.501" fill="none"/>
    </clipPath>
  </defs>
  <g id="Grupo_845781" data-name="Grupo 845781" clip-path="url(#clip-path)">
    <path id="Trazado_571582" data-name="Trazado 571582" d="M30.494,11.432c-.11-.093-.219-.146-.141-.352a4.341,4.341,0,0,0-1.425-5.215.262.262,0,0,1-.113-.289,1.105,1.105,0,0,0-.542-1.159c-.309-.205-.735-.25-.974-.5s-.3-.666-.5-.978a1.14,1.14,0,0,0-1.973.02c-.083.133-.156.271-.247.43a11.806,11.806,0,0,0-1.227-1.118c-.314-.242-.589-.242-.776,0-.175.229-.113.5.18.735a9.286,9.286,0,0,1,1.17,1.095c-.2.108-.383.2-.561.312a1.136,1.136,0,0,0-.019,1.953c.311.2.724.261.978.5s.306.679.517,1a1.145,1.145,0,0,0,1.293.506,1.22,1.22,0,0,0,.851-.873,1.405,1.405,0,0,1,1.006-.964.275.275,0,0,1,.283.024A3.506,3.506,0,0,1,29.71,9.907a3.668,3.668,0,0,1-.644,1.5.446.446,0,0,0,0,.585.393.393,0,0,0,.5.158c.195-.112.29-.011.407.095a4.464,4.464,0,0,1,1.463,4.585,4.4,4.4,0,0,1-3.287,3.355,5.633,5.633,0,0,1-1.572.165.462.462,0,0,0-.458.28.383.383,0,0,0,.062.471c.186.155.147.317.1.5a6.984,6.984,0,0,1-12.907,1.637c-.278-.5-.426-.548-.931-.294a3.361,3.361,0,0,1-4.9-2.438.442.442,0,0,0-.7-.356.638.638,0,0,1-.578.109A6.3,6.3,0,0,1,3.93,8.7a.605.605,0,0,1,.55-.137.386.386,0,0,0,.457-.26.406.406,0,0,0-.121-.54A.491.491,0,0,1,4.609,7.3,2.454,2.454,0,0,1,6.658,4.879a2.441,2.441,0,0,1,1.767.451.457.457,0,0,0,.561.02.426.426,0,0,0,.187-.5.348.348,0,0,1,.116-.365,9.608,9.608,0,0,1,9.536-3.319,8.581,8.581,0,0,1,2.264.791.476.476,0,0,0,.562-.05.453.453,0,0,0,.153-.457.533.533,0,0,0-.352-.377,10.4,10.4,0,0,0-5.6-1.029A10.5,10.5,0,0,0,8.484,3.98c-.15.183-.258.165-.444.1A3.355,3.355,0,0,0,3.666,7.421a.425.425,0,0,1-.231.472A7.028,7.028,0,0,0,.037,13.6a7.228,7.228,0,0,0,6.4,7.644.39.39,0,0,1,.381.282,4.351,4.351,0,0,0,5.535,2.491c.248-.09.347-.054.493.163a7.67,7.67,0,0,0,7.543,3.59,7.815,7.815,0,0,0,6.886-6.248.285.285,0,0,1,.3-.269,5.544,5.544,0,0,0,4.957-5.373,5.465,5.465,0,0,0-2.038-4.45M27.723,5.6a3.171,3.171,0,0,1-.839.358.631.631,0,0,0-.5.5,2.92,2.92,0,0,1-.36.838c-.132.213-.27.211-.4,0a3.093,3.093,0,0,1-.371-.868.591.591,0,0,0-.462-.463,3.144,3.144,0,0,1-.868-.371c-.213-.132-.212-.265,0-.4a3.1,3.1,0,0,1,.868-.372.593.593,0,0,0,.461-.463A3.182,3.182,0,0,1,25.62,3.5c.131-.21.271-.21.4,0a3.159,3.159,0,0,1,.369.868.6.6,0,0,0,.467.46,3.274,3.274,0,0,1,.841.355.318.318,0,0,1,.184.208.263.263,0,0,1-.161.212" transform="translate(-0.019 0.001)"/>
    <path id="Trazado_571583" data-name="Trazado 571583" d="M71.642,16.149a4.356,4.356,0,0,0-5.5-.019,9.495,9.495,0,0,0-3.726,9.6.4.4,0,0,1-.132.409c-.462.451-.914.911-1.371,1.367a2.63,2.63,0,0,0-.548.77A2.5,2.5,0,0,0,62.707,31.8c.825-.01,1.651,0,2.476,0,.166,0,.259,0,.173.221a2.223,2.223,0,0,0,.024,1.61,8.737,8.737,0,0,0,1.29,2.242.719.719,0,0,0,.624.327c.344-.039.49.152.638.389a1.682,1.682,0,0,0,.15.2,1.032,1.032,0,0,0,1.606,0,2.994,2.994,0,0,0,.282-.382.359.359,0,0,1,.381-.2.851.851,0,0,0,.771-.361,8.442,8.442,0,0,0,1.266-2.218,2.2,2.2,0,0,0,.022-1.609c-.088-.222.007-.222.173-.22.466,0,.931,0,1.4,0v-.005c.4,0,.8.013,1.206,0a2.492,2.492,0,0,0,1.684-4.259c-.457-.47-.923-.932-1.392-1.391a.4.4,0,0,1-.134-.408,9.5,9.5,0,0,0-3.7-9.582m-7.515,3.8a8.881,8.881,0,0,1,2.649-3.111,3.541,3.541,0,0,1,4.177-.026,8.785,8.785,0,0,1,2.692,3.154c.105.2.058.279-.127.375a10.01,10.01,0,0,1-4.69,1.15,9.86,9.86,0,0,1-4.566-1.145c-.2-.1-.246-.182-.133-.4m.784,10.894c-.718,0-1.437,0-2.155,0a1.555,1.555,0,0,1-1.114-2.721c.37-.36.729-.73,1.115-1.117a9.877,9.877,0,0,0,2.372,3.768c-.048.117-.147.066-.219.066m6.668,2.13a2.957,2.957,0,0,1-.206.629,7.57,7.57,0,0,1-.885,1.493c-.061.084-.085.161-.232.068-.285-.18-.5-.112-.7.173-.166.231-.332.464-.486.7-.124.192-.224.226-.359.008-.149-.242-.315-.475-.479-.708-.21-.3-.427-.362-.726-.173-.12.076-.15.039-.211-.046a7.485,7.485,0,0,1-1.038-1.874,1.323,1.323,0,0,1-.041-.808.744.744,0,0,1,.83-.639h3.583a.916.916,0,0,1,.951,1.175m-.192-2.347a.849.849,0,0,1-.63.225c-.624-.016-1.249-.005-1.873-.005-.656,0-1.312-.006-1.968,0a.686.686,0,0,1-.461-.161,8.763,8.763,0,0,1-2.9-9.326c.058-.184.09-.269.328-.15a10.637,10.637,0,0,0,9.928.03c.259-.128.335-.1.406.176a8.657,8.657,0,0,1-2.835,9.208m4.94-2.256a1.527,1.527,0,0,1-1.1,2.46c-.854.026-1.709.006-2.641.006a9.991,9.991,0,0,0,2.4-3.759c.453.43.935.83,1.346,1.293" transform="translate(-52.497 -13.234)"/>
    <path id="Trazado_571584" data-name="Trazado 571584" d="M26.83,72.433A4.316,4.316,0,0,1,25.4,71.005a1.139,1.139,0,0,0-2,.009,10.875,10.875,0,0,1-1.43,1.424,1.139,1.139,0,0,0-.007,1.986c.305.192.711.247.952.476s.3.66.5.974a1.126,1.126,0,0,0,.933.569,1.145,1.145,0,0,0,1.056-.578,4.887,4.887,0,0,1,1.426-1.429,1.14,1.14,0,0,0,0-2m-.546,1.217a3.57,3.57,0,0,1-.872.365.559.559,0,0,0-.424.421,3.367,3.367,0,0,1-.382.9q-.2.324-.4,0a3.415,3.415,0,0,1-.382-.9.554.554,0,0,0-.423-.421,3.438,3.438,0,0,1-.9-.383c-.217-.133-.214-.264,0-.4a2.679,2.679,0,0,1,.809-.351.667.667,0,0,0,.542-.546,2.833,2.833,0,0,1,.35-.809c.131-.216.271-.215.4,0a2.964,2.964,0,0,1,.359.84.622.622,0,0,0,.5.5,3.223,3.223,0,0,1,.814.34c.094.051.183.108.187.222a.314.314,0,0,1-.186.216" transform="translate(-18.665 -61.455)"/>
    <path id="Trazado_571585" data-name="Trazado 571585" d="M44.17,194.853a2.822,2.822,0,0,0-2.594,1.721,2.728,2.728,0,0,0-.031,2.218.475.475,0,0,0,.914-.234,1.923,1.923,0,0,0-.087-.27,1.87,1.87,0,0,1,.6-2.034,1.9,1.9,0,1,1,.635,3.268c-.386-.116-.65-.026-.74.251-.1.3.06.545.463.659a2.739,2.739,0,0,0,2.972-.817,2.676,2.676,0,0,0,.485-3.065,2.779,2.779,0,0,0-2.617-1.7" transform="translate(-36.067 -170.061)"/>
    <path id="Trazado_571586" data-name="Trazado 571586" d="M2.387,218.028a2.38,2.38,0,1,0,2.375,2.386,2.388,2.388,0,0,0-2.375-2.386m-.019,3.808a1.428,1.428,0,1,1,1.441-1.423,1.434,1.434,0,0,1-1.441,1.423" transform="translate(0 -190.287)"/>
    <path id="Trazado_571587" data-name="Trazado 571587" d="M164.088,154.8a1.216,1.216,0,0,1-.756-.762,1,1,0,0,0-1.888.005,1.218,1.218,0,0,1-.76.759,1,1,0,0,0,0,1.885,1.218,1.218,0,0,1,.758.76.962.962,0,0,0,.945.67.947.947,0,0,0,.929-.644,1.253,1.253,0,0,1,.774-.787,1,1,0,0,0-.005-1.885m-.9,1.237a.64.64,0,0,0-.5.5,1.872,1.872,0,0,1-.291.629,1.12,1.12,0,0,1-.259-.5.789.789,0,0,0-.66-.669,1.022,1.022,0,0,1-.5-.259,1.567,1.567,0,0,1,.607-.291.628.628,0,0,0,.507-.5,1.671,1.671,0,0,1,.289-.616,1.323,1.323,0,0,1,.316.635.6.6,0,0,0,.46.465,2.026,2.026,0,0,1,.645.291,1.17,1.17,0,0,1-.606.309" transform="translate(-139.653 -133.847)"/>
    <path id="Trazado_571588" data-name="Trazado 571588" d="M110.91,82.308a2.607,2.607,0,1,0,2.592,2.64,2.611,2.611,0,0,0-2.592-2.64m-.014,4.261a1.654,1.654,0,1,1,1.653-1.647,1.647,1.647,0,0,1-1.653,1.647" transform="translate(-94.51 -71.835)"/>
  </g>
</svg>
