<svg id="Grupo_845778" data-name="Grupo 845778" xmlns="http://www.w3.org/2000/svg" xmlns:xlink="http://www.w3.org/1999/xlink" width="34.928" height="32.501" viewBox="0 0 34.928 32.501">
  <defs>
    <clipPath id="clip-path">
      <rect id="Rectángulo_280639" data-name="Rectángulo 280639" width="34.928" height="32.501" fill="none"/>
    </clipPath>
  </defs>
  <g id="Grupo_845777" data-name="Grupo 845777" clip-path="url(#clip-path)">
    <path id="Trazado_571556" data-name="Trazado 571556" d="M31.294,16a.511.511,0,0,1-.22-.457q.013-1.2,0-2.391c0-.473-.195-.658-.669-.659-.854,0-1.708-.008-2.562,0-.24,0-.368-.054-.433-.307a10.528,10.528,0,0,0-1.133-2.732.3.3,0,0,1,.06-.434c.62-.6,1.229-1.219,1.839-1.832.359-.361.357-.625-.007-.989q-1.641-1.644-3.285-3.285c-.395-.394-.648-.4-1.041,0q-.921.915-1.835,1.836c-.1.106-.185.169-.345.074a11.416,11.416,0,0,0-2.857-1.19c-.215-.059-.227-.176-.226-.346q0-1.3,0-2.6c0-.5-.182-.689-.671-.689Q15.555,0,13.2,0c-.5,0-.7.208-.7.711,0,.854-.007,1.708,0,2.562,0,.216-.054.326-.278.382A10.959,10.959,0,0,0,9.491,4.789a.314.314,0,0,1-.458-.079C8.438,4.1,7.83,3.5,7.225,2.9c-.365-.363-.631-.369-.992-.009Q4.562,4.55,2.9,6.22c-.348.349-.345.613.007.967.594.6,1.185,1.2,1.791,1.784a.367.367,0,0,1,.089.542,10.632,10.632,0,0,0-1.112,2.7.32.32,0,0,1-.378.279c-.831-.013-1.662-.006-2.494-.005-.621,0-.784.157-.791.786S0,14.53.009,15.156c.012.944-.046,1.89.032,2.833.036.435.219.586.668.587.854,0,1.708.009,2.562,0,.227,0,.344.047.407.286a10.835,10.835,0,0,0,1.12,2.7c.127.217.077.332-.085.489Q3.8,22.94,2.9,23.857c-.355.361-.35.612,0,.965q1.665,1.669,3.334,3.333c.372.371.6.367.984-.011.606-.6,1.214-1.2,1.809-1.814a.323.323,0,0,1,.468-.063,11.219,11.219,0,0,0,2.7,1.121c.227.061.308.15.3.391-.015.876-.01,1.753,0,2.63,0,.417.195.617.6.618q2.46.006,4.919,0a.512.512,0,0,0,.564-.576c.006-.421,0-.842,0-1.263l.1-.079a.542.542,0,0,0,.067.159,8.979,8.979,0,0,0,8.407,3.122A9.183,9.183,0,0,0,31.294,16M17.225,29.94q-1.674-.013-3.348,0c-.227,0-.293-.072-.29-.293.011-.808,0-1.616,0-2.425,0-.489-.1-.642-.566-.747a11.339,11.339,0,0,1-3.451-1.427c-.412-.254-.556-.228-.9.113C8.1,25.74,7.511,26.315,6.941,26.9c-.158.163-.248.193-.424.012q-1.167-1.2-2.366-2.367c-.162-.158-.159-.244,0-.4.6-.578,1.18-1.17,1.766-1.76.313-.315.349-.5.115-.874A11.463,11.463,0,0,1,4.573,17.97a.572.572,0,0,0-.636-.488c-.831.005-1.662-.006-2.494.006-.235,0-.316-.064-.313-.307q.017-1.656,0-3.313c0-.229.08-.29.3-.288.808.01,1.617.006,2.425,0,.465,0,.628-.126.739-.585A11.329,11.329,0,0,1,6.029,9.552c.234-.369.209-.576-.117-.909-.565-.578-1.134-1.152-1.717-1.712-.184-.177-.187-.278,0-.458Q5.38,5.317,6.537,4.13c.147-.15.225-.154.373,0,.578.6,1.171,1.18,1.76,1.766.315.313.5.35.878.121A11.562,11.562,0,0,1,13.1,4.56c.366-.082.493-.274.494-.668,0-.831.009-1.662,0-2.493,0-.236.061-.313.3-.31C15,1.1,16.1,1.1,17.2,1.09c.222,0,.294.063.291.289-.012.819-.006,1.639,0,2.459,0,.463.136.632.587.737a10.94,10.94,0,0,1,3.388,1.4c.438.276.618.251.988-.117.572-.571,1.147-1.139,1.712-1.717.144-.147.233-.192.4-.017q1.181,1.21,2.391,2.391c.157.154.137.237-.008.379-.6.58-1.18,1.171-1.766,1.76-.325.326-.356.52-.114.906a11.094,11.094,0,0,1,1.442,3.517c.078.353.292.5.7.507.809,0,1.617.011,2.425,0,.266-.005.363.066.346.342-.023.393-.006.788-.006,1.225a11.284,11.284,0,0,0-2.049-.753,8.973,8.973,0,0,0-4.911.156c-.337.109-.419.013-.474-.294a6.917,6.917,0,0,0-3.2-4.756,7.131,7.131,0,1,0-3.2,13.122c.419-.034.4-.021.39.395a9.223,9.223,0,0,0,.807,4.044,1.409,1.409,0,0,1,.142.622q-.013.99,0,1.981c0,.2-.057.28-.27.278m4.132-14.7a9.236,9.236,0,0,0-3.05,2.681,8.617,8.617,0,0,0-1.482,3.194.445.445,0,0,1-.46.389,5.973,5.973,0,0,1-4.595-1.289,5.815,5.815,0,0,1-2.258-4.554,6.02,6.02,0,0,1,5.182-6.11,5.1,5.1,0,0,1,.814-.062,6.094,6.094,0,0,1,6.057,5.451c.016.185-.086.234-.209.3m4.408,16.175A8.1,8.1,0,1,1,33.831,23.3a8.075,8.075,0,0,1-8.067,8.122" transform="translate(0 0)"/>
    <path id="Trazado_571557" data-name="Trazado 571557" d="M142.828,117.858a7.175,7.175,0,1,0,7.164,7.208,7.189,7.189,0,0,0-7.164-7.208m-.037,13.256a6.084,6.084,0,0,1,.024-12.167,6.084,6.084,0,1,1-.024,12.167" transform="translate(-117.066 -101.723)"/>
    <path id="Trazado_571558" data-name="Trazado 571558" d="M166.609,136.289c-.235-.06-.252-.195-.251-.4.008-1.172.005-2.345,0-3.517,0-.432-.205-.669-.559-.662s-.531.234-.533.651c0,.694,0,1.389,0,2.083s-.011,1.366.006,2.049a.471.471,0,0,1-.279.482c-.774.433-1.54.881-2.308,1.325-.391.226-.506.534-.318.836.172.276.509.315.876.1.61-.354,1.221-.705,1.831-1.06.122-.071.223-.143.348.012a.5.5,0,0,0,.624.116.492.492,0,0,0,.307-.525.475.475,0,0,1,.322-.529.507.507,0,0,0,.283-.508.481.481,0,0,0-.352-.46" transform="translate(-140.066 -113.683)"/>
  </g>
</svg>
