<svg id="Grupo_845769" data-name="Grupo 845769" xmlns="http://www.w3.org/2000/svg" xmlns:xlink="http://www.w3.org/1999/xlink" width="32.873" height="24.333" viewBox="0 0 32.873 24.333">
  <defs>
    <clipPath id="clip-path">
      <rect id="Rectángulo_280630" data-name="Rectángulo 280630" width="32.873" height="24.333" fill="none"/>
    </clipPath>
  </defs>
  <g id="Grupo_845768" data-name="Grupo 845768" clip-path="url(#clip-path)">
    <path id="Trazado_571447" data-name="Trazado 571447" d="M32.584,32.186A27.617,27.617,0,0,0,30.1,30.232c-3.839-2.712-7.872-4.978-12.667-5.485a1.148,1.148,0,0,1-.846-.009h-.259a1.109,1.109,0,0,1-.848,0h0a18.606,18.606,0,0,0-4.487,1.014A35.927,35.927,0,0,0,.308,32.166c-.416.347-.408.623.008.985a37.685,37.685,0,0,0,4.576,3.365,28.965,28.965,0,0,0,6.916,3.315,15.849,15.849,0,0,0,3.636.723c.308.021.472.116.458.486-.033.825-.013,1.653-.007,2.479,0,.15-.056.316.074.447,0-1,.006-1.994-.014-2.991-.006-.3.065-.43.374-.363.207.045.423-.088.627.03h0a24.076,24.076,0,0,0,3.6-.654A34.023,34.023,0,0,0,32.6,33.118c.37-.308.352-.6-.021-.932m-1.3.675A35.521,35.521,0,0,1,22.4,38.244a.564.564,0,0,1-.328.076,12.265,12.265,0,0,1-3.689,1.043.721.721,0,0,1-.429.078.574.574,0,0,1-.6.016l-.092.049h0a.238.238,0,0,1-.214.059,2.9,2.9,0,0,1-1.239-.006.321.321,0,0,1-.171-.038h0l-.095-.056h0a.783.783,0,0,1-.682-.018c-.145-.024-.3,0-.432-.09h0a14.776,14.776,0,0,1-3.038-.765c-.186-.062-.371-.128-.557-.192a36.3,36.3,0,0,1-9.168-5.462c-.312-.247-.268-.346.011-.566A35.854,35.854,0,0,1,10.5,27.065c.117-.047.242-.077.363-.115A13.774,13.774,0,0,1,14.178,26h0a.962.962,0,0,1,.523-.09.456.456,0,0,1,.516,0h0l.085-.042h0c.236-.223.52-.08.782-.1h.661a.147.147,0,0,0,.061.023l-.061-.023c.291.021.6-.119.87.1h0a.639.639,0,0,1,.512.046,1.176,1.176,0,0,1,.6.095,15.075,15.075,0,0,1,2.959.8,2.1,2.1,0,0,1,.359.219c.153-.128.265.021.382.068a35.5,35.5,0,0,1,8.82,5.332c.175.14.292.23.036.436" transform="translate(0 -20.493)"/>
    <path id="Trazado_571448" data-name="Trazado 571448" d="M173.783,121.071c0-.408-.206-.659-.524-.63-.364.033-.5.27-.5.617,0,.583-.01,1.166.006,1.749.006.228-.068.288-.288.283-.6-.014-1.2-.006-1.793,0-.336,0-.559.169-.563.505a.485.485,0,0,0,.549.516c.854,0,1.708,0,2.562,0a.5.5,0,0,0,.553-.56c0-.412,0-.825,0-1.237s0-.825,0-1.237" transform="translate(-140.933 -99.776)"/>
    <path id="Trazado_571449" data-name="Trazado 571449" d="M3.167,123.1c-.57,0-1.141-.013-1.71.006-.258.008-.348-.057-.34-.329.02-.6.009-1.2,0-1.795a.477.477,0,0,0-.5-.524.478.478,0,0,0-.511.515q-.02,1.3,0,2.607a.508.508,0,0,0,.576.543c.413,0,.827,0,1.24,0s.827,0,1.24,0c.35,0,.6-.134.6-.509s-.242-.517-.592-.516" transform="translate(-0.079 -99.796)"/>
    <path id="Trazado_571450" data-name="Trazado 571450" d="M.608,3.657c.378,0,.513-.248.513-.594,0-.569.012-1.139,0-1.708-.008-.258.067-.35.335-.342.583.018,1.167.008,1.751,0,.332,0,.557-.151.558-.5S3.538.008,3.205,0c-.427,0-.854,0-1.282,0-.4,0-.8-.007-1.2,0C.27.014.1.167.1.622c-.01.811,0,1.622,0,2.433,0,.341.132.6.511.6" transform="translate(-0.077 0)"/>
    <path id="Trazado_571451" data-name="Trazado 571451" d="M170.717,1.017c.114,0,.228,0,.342,0,.539.02,1.248-.222,1.569.084s.066,1.022.094,1.558c.007.142,0,.285,0,.427.006.331.152.562.5.568.371.006.526-.226.525-.581,0-.826,0-1.652,0-2.478,0-.415-.178-.581-.608-.591-.413-.009-.826,0-1.24,0s-.8,0-1.2,0c-.346,0-.589.128-.623.495-.029.311.227.509.638.521" transform="translate(-140.898 0)"/>
    <path id="Trazado_571452" data-name="Trazado 571452" d="M93.045,6.472c0,.172.034.278.123.33A2.153,2.153,0,0,1,93.4,6.75a.749.749,0,0,1,.269,0c.084.029.169.056.254.078l.1-.005c0-1.032,0-2.064,0-3.1,0-.285-.089-.511-.386-.575a.461.461,0,0,0-.6.331c0,1,.018,1.993,0,2.989" transform="translate(-77.078 -2.596)"/>
    <path id="Trazado_571453" data-name="Trazado 571453" d="M94.282,24.154a.749.749,0,0,0-.269,0,2.116,2.116,0,0,0-.232.052.407.407,0,0,0,.239.038h.259l.258-.013c-.085-.022-.17-.049-.254-.078" transform="translate(-77.692 -20)"/>
    <path id="Trazado_571454" data-name="Trazado 571454" d="M93.229,118.13c0,.694,0,1.387,0,2.081,0,.192.036.4-.148.549a.476.476,0,0,0,.619.3c.291-.089.36-.322.359-.6,0-1.008,0-2.016.008-3.024-.109.028-.207.086-.321.1-.512.084-.512.087-.513.59" transform="translate(-77.109 -97.289)"/>
    <path id="Trazado_571455" data-name="Trazado 571455" d="M93.367,117.164c-.309-.067-.38.068-.374.363.02,1,.012,1.994.014,2.991.185-.146.146-.358.148-.55.008-.693,0-1.387,0-2.081,0-.5,0-.505.513-.59.114-.019.212-.077.321-.1-.2-.118-.42.015-.627-.03" transform="translate(-77.039 -97.047)"/>
    <path id="Trazado_571456" data-name="Trazado 571456" d="M90.753,8.508a.316.316,0,0,1-.061-.233c.019-1.036-.018-2.072.02-3.108-.112.12-.063.268-.064.4,0,.833-.023,1.667.008,2.5.013.347-.081.493-.426.459h0a.924.924,0,0,0,.524-.02" transform="translate(-74.749 -4.281)"/>
    <path id="Trazado_571457" data-name="Trazado 571457" d="M91.078,24.66c-.137.035-.256.054-.324-.016a.921.921,0,0,1-.524.02,1.109,1.109,0,0,0,.848,0" transform="translate(-74.75 -20.416)"/>
    <path id="Trazado_571458" data-name="Trazado 571458" d="M92.924,8.275a.316.316,0,0,0,.061.233l.086-.022c-.089-.052-.125-.158-.123-.33.013-1,0-1.993,0-2.989-.038,1.036,0,2.072-.02,3.108" transform="translate(-76.982 -4.281)"/>
    <path id="Trazado_571459" data-name="Trazado 571459" d="M93.369,24.514l-.085.022c.068.07.188.051.324.016h0a.406.406,0,0,1-.239-.038" transform="translate(-77.28 -20.308)"/>
    <path id="Trazado_571460" data-name="Trazado 571460" d="M99.051,24.662h0l-.488-.027a.276.276,0,0,1-.044.02,1.148,1.148,0,0,0,.531.007" transform="translate(-81.618 -20.409)"/>
    <path id="Trazado_571461" data-name="Trazado 571461" d="M97,24.743a.452.452,0,0,1-.315,0,1.149,1.149,0,0,0,.847.009A1.148,1.148,0,0,1,97,24.743" transform="translate(-80.096 -20.497)"/>
    <path id="Trazado_571462" data-name="Trazado 571462" d="M98.242,24.655a.291.291,0,0,0,.044-.02l-.1.005.057.014" transform="translate(-81.34 -20.409)"/>
    <path id="Trazado_571463" data-name="Trazado 571463" d="M97,24.68l-.057-.014-.258.013a.452.452,0,0,0,.315,0" transform="translate(-80.096 -20.434)"/>
    <path id="Trazado_571464" data-name="Trazado 571464" d="M91.362,110.948c-.057-.012-.114-.024-.171-.038a.32.32,0,0,0,.171.038" transform="translate(-75.546 -91.882)"/>
    <path id="Trazado_571465" data-name="Trazado 571465" d="M99.623,110.822c-.071.023-.143.042-.214.059a.239.239,0,0,0,.214-.059" transform="translate(-82.354 -91.809)"/>
    <path id="Trazado_571466" data-name="Trazado 571466" d="M111.029,44.017a8.2,8.2,0,0,0,1.98-4.326c.068-.462.139-.51.619-.516.669-.01,1.339,0,2.008,0,.142,0,.285.005.427,0,.276-.016.593-.026.6-.391.011-.388-.318-.378-.589-.382-.812-.009-1.624,0-2.436-.006-.5-.005-.571-.054-.64-.544a7.83,7.83,0,0,0-2.04-4.38c-.086-.092-.177-.191-.134-.339a2.107,2.107,0,0,0-.359-.219,15.076,15.076,0,0,0-2.959-.8c-.058.014-.123,0-.18.023a6.778,6.778,0,0,1,4.79,5.493c.127.622-.011.762-.651.768-.442,0-.884-.008-1.325.005-.255.008-.517.058-.507.384.01.307.257.383.518.393.456.016.912,0,1.368.008.564.008.706.151.609.694a6.965,6.965,0,0,1-1.691,3.537,7.086,7.086,0,0,1-1.707,1.408,4.778,4.778,0,0,1-1.545.592l-.026.01c0,.016,0,.031,0,.047a12.265,12.265,0,0,0,3.689-1.043c-.057-.186.08-.294.178-.406" transform="translate(-88.776 -26.596)"/>
    <path id="Trazado_571467" data-name="Trazado 571467" d="M107.249,32.29a6.942,6.942,0,0,1,4.786,5.608c.046.29.052.516-.38.479-.509-.044-1.024-.013-1.537-.009-.42,0-.649.187-.645.508s.237.507.654.511c.541.005,1.083.013,1.623,0,.243-.008.32.062.293.309a6.485,6.485,0,0,1-.732,2.366,7,7,0,0,1-4.153,3.432c0,.012,0,.025,0,.037l.026-.009a4.775,4.775,0,0,0,1.545-.593,7.077,7.077,0,0,0,1.707-1.408,6.965,6.965,0,0,0,1.691-3.537c.1-.543-.044-.686-.609-.694-.456-.007-.912.009-1.368-.008-.26-.009-.508-.086-.518-.393-.011-.326.251-.377.507-.384.441-.013.883,0,1.325-.005.64-.006.778-.146.651-.768a6.778,6.778,0,0,0-4.79-5.493.151.151,0,0,0-.078.054" transform="translate(-88.775 -26.706)"/>
    <path id="Trazado_571468" data-name="Trazado 571468" d="M130.788,44.506c.029-.25.107-.294.33-.291.911.011,1.823.008,2.735,0,.428,0,.644-.181.647-.511s-.207-.506-.639-.508c-.912,0-1.824-.006-2.735,0-.215,0-.308-.026-.338-.286a7.954,7.954,0,0,0-2.308-4.849c-.042.147.048.247.134.339a7.829,7.829,0,0,1,2.04,4.38c.068.49.142.539.64.544.812.009,1.624,0,2.436.006.271,0,.6-.007.589.382-.01.365-.327.375-.6.391-.142.008-.285,0-.427,0-.669,0-1.339-.007-2.008,0-.48.007-.552.054-.619.516a8.2,8.2,0,0,1-1.98,4.326c-.1.112-.235.22-.178.406a.468.468,0,0,1,.059-.1,7.986,7.986,0,0,0,2.225-4.751" transform="translate(-106.43 -31.536)"/>
    <path id="Trazado_571469" data-name="Trazado 571469" d="M38.408,45.425a6.882,6.882,0,0,1-4.974-5.74c-.041-.386.038-.488.434-.506.427-.02.855,0,1.283-.007a2.156,2.156,0,0,0,.384-.02c.236-.044.4-.167.392-.426s-.2-.321-.418-.334c-.342-.021-.684-.006-1.026-.009-.214,0-.428,0-.641,0-.327-.008-.45-.161-.414-.493a6.646,6.646,0,0,1,1.012-2.834,6.952,6.952,0,0,1,3.078-2.689c.22-.1.459-.139.683-.225l-.088-.039h0a13.771,13.771,0,0,0-3.314.949h0c.032.164-.076.268-.169.373a7.829,7.829,0,0,0-2.041,4.516c-.035.345-.265.443-.568.447-.769.009-1.539,0-2.309,0a3.814,3.814,0,0,0-.427.011c-.2.023-.371.1-.392.322s.149.324.328.393a1.393,1.393,0,0,0,.507.052c.755,0,1.511-.006,2.266,0,.5.007.547.067.61.559a7.518,7.518,0,0,0,1.942,4.241c.132.143.365.262.23.529.185.064.37.13.556.192a14.787,14.787,0,0,0,3.038.765h0l.039-.032" transform="translate(-23.933 -26.592)"/>
    <path id="Trazado_571470" data-name="Trazado 571470" d="M59.4,32.553a6.953,6.953,0,0,0-3.078,2.689,6.647,6.647,0,0,0-1.012,2.834c-.036.331.087.485.414.493.214.005.428,0,.641,0,.342,0,.684-.012,1.026.009.213.013.408.075.418.334s-.156.382-.392.426a2.141,2.141,0,0,1-.384.02c-.428,0-.856-.013-1.283.007-.4.018-.475.12-.434.506a6.882,6.882,0,0,0,4.974,5.74l.054-.045A6.89,6.89,0,0,1,55.411,39.8c-.046-.278.013-.346.283-.337.556.017,1.112.011,1.668,0,.407-.005.651-.215.621-.539-.034-.373-.279-.489-.627-.483-.57.01-1.141,0-1.711.006-.2,0-.289-.036-.254-.26a7.4,7.4,0,0,1,.961-2.786,7.077,7.077,0,0,1,3.822-3.032l-.092-.041c-.224.086-.463.125-.683.225" transform="translate(-45.815 -26.782)"/>
    <path id="Trazado_571471" data-name="Trazado 571471" d="M33.754,48.557a7.518,7.518,0,0,1-1.942-4.241c-.063-.493-.109-.553-.61-.559-.755-.01-1.511,0-2.266,0a1.393,1.393,0,0,1-.507-.052c-.179-.069-.349-.169-.328-.393s.192-.3.392-.322a3.816,3.816,0,0,1,.427-.011c.769,0,1.539,0,2.309,0,.3,0,.533-.1.568-.447a7.83,7.83,0,0,1,2.041-4.516c.093-.1.2-.208.169-.373a.81.81,0,0,1-.072.1,7.708,7.708,0,0,0-2.25,4.824c-.021.261-.156.284-.367.282-.912-.007-1.824,0-2.737,0a.576.576,0,0,0-.535.2.472.472,0,0,0-.057.521.563.563,0,0,0,.563.307c.927,0,1.853,0,2.779,0,.217,0,.337.034.356.291a7.613,7.613,0,0,0,1.587,4.044,4.506,4.506,0,0,1,.71.892c.135-.267-.1-.385-.23-.529" transform="translate(-23.142 -31.178)"/>
    <path id="Trazado_571472" data-name="Trazado 571472" d="M93.2,31.308a8.337,8.337,0,0,0,.057,1.6c.08.185.2.319.422.266a.4.4,0,0,0,.288-.422c.025-.466,0-.933.012-1.4a.875.875,0,0,1,.1-.572l.008,0-.109-.041a.15.15,0,0,1-.061-.023h-.66a.338.338,0,0,0-.1.221,1.653,1.653,0,0,1,.043.369" transform="translate(-77.177 -25.447)"/>
    <path id="Trazado_571473" data-name="Trazado 571473" d="M93.114,44.147Z" transform="translate(-77.139 -36.573)"/>
    <path id="Trazado_571474" data-name="Trazado 571474" d="M94.047,31.091a.876.876,0,0,0-.1.572c-.01.466.012.933-.013,1.4a.4.4,0,0,1-.288.422c-.22.052-.342-.081-.422-.266a8.337,8.337,0,0,1-.057-1.6,1.612,1.612,0,0,0-.043-.369c-.009.085,0,.174,0,.26-.005.608-.006,1.215-.008,1.823a.457.457,0,0,0,.6.31.5.5,0,0,0,.366-.55c0-.662,0-1.324.005-1.987l-.035-.013-.008,0" transform="translate(-77.139 -25.755)"/>
    <path id="Trazado_571475" data-name="Trazado 571475" d="M93.279,109.714c-.615.023-.825.023-.9-.246,0,.015,0,.031-.006.046-.027.139-.086.229-.188.24a2.9,2.9,0,0,0,1.239.006c-.044-.006-.088-.017-.132-.024-.007-.007-.011-.014-.017-.021" transform="translate(-76.373 -90.688)"/>
    <path id="Trazado_571476" data-name="Trazado 571476" d="M91.19,110.91Z" transform="translate(-75.545 -91.882)"/>
    <line id="Línea_110" data-name="Línea 110" transform="translate(17.269 19.013)"/>
    <path id="Trazado_571477" data-name="Trazado 571477" d="M98.543,110.835c.006.007.01.015.017.021.044.007.088.018.132.024.071-.016.143-.036.214-.059l-.32.012h-.043" transform="translate(-81.637 -91.809)"/>
    <path id="Trazado_571478" data-name="Trazado 571478" d="M91.551,99.562c0-.015,0-.03.006-.046a3.054,3.054,0,0,1-.038-.665q0-.7,0-1.4h0c-.133.11-.072.262-.074.394-.008.55-.011,1.1,0,1.651,0,.2-.043.3-.255.264.057.014.114.026.171.038.1-.011.161-.1.188-.24" transform="translate(-75.546 -80.736)"/>
    <path id="Trazado_571479" data-name="Trazado 571479" d="M89.85,30.741a.181.181,0,0,1,.131-.146c-.262.021-.546-.123-.782.1h0c.387-.115.566-.123.651.045" transform="translate(-73.896 -25.324)"/>
    <path id="Trazado_571480" data-name="Trazado 571480" d="M89.8,31.43a6.427,6.427,0,0,0,.071,1.674c-.065-.69-.013-1.38-.028-2.071a.368.368,0,0,1,.008-.086c-.084-.168-.264-.161-.651-.045.6-.063.579-.062.6.528" transform="translate(-73.898 -25.531)"/>
    <line id="Línea_111" data-name="Línea 111" transform="translate(15.975 7.574)"/>
    <path id="Trazado_571481" data-name="Trazado 571481" d="M92.993,30.869a.418.418,0,0,1,.028.075.341.341,0,0,1,.1-.221.181.181,0,0,0-.131.146" transform="translate(-77.039 -25.452)"/>
    <path id="Trazado_571482" data-name="Trazado 571482" d="M92.96,31.649a.437.437,0,0,0-.028-.075.368.368,0,0,0-.008.086c.016.69-.037,1.381.028,2.071,0-.607,0-1.215.008-1.823,0-.086-.01-.175,0-.26" transform="translate(-76.977 -26.157)"/>
    <path id="Trazado_571483" data-name="Trazado 571483" d="M98.454,30.689l.026,0v0c-.27-.217-.579-.076-.87-.1l.061.023a.28.28,0,0,1,.122.038,1.028,1.028,0,0,1,.662.033" transform="translate(-80.863 -25.325)"/>
    <path id="Trazado_571484" data-name="Trazado 571484" d="M99.339,30.922a1.028,1.028,0,0,0-.662-.033.1.1,0,0,1,.022.016,1.654,1.654,0,0,1,.668.059s0-.032,0-.037l-.026,0" transform="translate(-81.748 -25.558)"/>
    <path id="Trazado_571485" data-name="Trazado 571485" d="M98.086,30.888a.283.283,0,0,0-.122-.038l.109.041.014,0" transform="translate(-81.157 -25.557)"/>
    <path id="Trazado_571486" data-name="Trazado 571486" d="M98.6,31.076l.035.013a.1.1,0,0,0-.022-.016l-.014,0" transform="translate(-81.682 -25.742)"/>
    <path id="Trazado_571487" data-name="Trazado 571487" d="M106.034,31.655c.051-.095.151-.026.235-.009a1.175,1.175,0,0,0-.6-.095c0,.017,0,.034,0,.051.124.01.244.05.37.052" transform="translate(-87.536 -26.139)"/>
    <path id="Trazado_571488" data-name="Trazado 571488" d="M105.662,31.849v.036l.347.085a.229.229,0,0,1,.023-.068c-.125,0-.246-.043-.37-.052" transform="translate(-87.534 -26.385)"/>
    <path id="Trazado_571489" data-name="Trazado 571489" d="M107.819,31.917h.019l.036.013c.057-.018.122-.009.18-.022-.085-.018-.184-.086-.235.009" transform="translate(-89.322 -26.4)"/>
    <path id="Trazado_571490" data-name="Trazado 571490" d="M107.706,32.154a.228.228,0,0,0-.023.068.152.152,0,0,1,.078-.055l-.036-.013h-.019" transform="translate(-89.209 -26.638)"/>
    <path id="Trazado_571491" data-name="Trazado 571491" d="M86.744,110.3l-.043-.013-.037.034h0a.784.784,0,0,0,.682.018,1.318,1.318,0,0,1-.6-.039" transform="translate(-71.796 -91.364)"/>
    <path id="Trazado_571492" data-name="Trazado 571492" d="M86.93,110.023l-.049.045.042.013a1.318,1.318,0,0,0,.6.039h0l-.6-.1" transform="translate(-71.976 -91.147)"/>
    <path id="Trazado_571493" data-name="Trazado 571493" d="M101.785,110.208a.944.944,0,0,1-.593.056.574.574,0,0,0,.6-.016c0-.014,0-.027,0-.04h0" transform="translate(-83.831 -91.301)"/>
    <path id="Trazado_571494" data-name="Trazado 571494" d="M101.785,110.033h0c0-.012,0-.024,0-.036l-.6.093a.944.944,0,0,0,.593-.056" transform="translate(-83.831 -91.125)"/>
    <path id="Trazado_571495" data-name="Trazado 571495" d="M102.683,31.137a1.662,1.662,0,0,1,.492.089.043.043,0,0,1,0-.016c.007-.019.013-.029.02-.029a.64.64,0,0,0-.512-.046h0Z" transform="translate(-85.067 -25.768)"/>
    <path id="Trazado_571496" data-name="Trazado 571496" d="M103.175,31.384a1.656,1.656,0,0,0-.492-.089l0,.037.509.094a.059.059,0,0,1-.019-.042" transform="translate(-85.067 -25.926)"/>
    <path id="Trazado_571497" data-name="Trazado 571497" d="M102.683,31.287v0h0v0" transform="translate(-85.066 -25.918)"/>
    <path id="Trazado_571498" data-name="Trazado 571498" d="M102.684,31.3h0s0,.037,0,.037Z" transform="translate(-85.067 -25.926)"/>
    <path id="Trazado_571499" data-name="Trazado 571499" d="M105.549,31.581a.042.042,0,0,0,0,.016l.011,0h.008c0-.017,0-.034,0-.051-.007,0-.013.01-.02.029" transform="translate(-87.44 -26.139)"/>
    <path id="Trazado_571500" data-name="Trazado 571500" d="M105.563,31.819l-.011,0a.06.06,0,0,0,.019.042c0-.012,0-.024,0-.036h-.008" transform="translate(-87.443 -26.356)"/>
    <path id="Trazado_571501" data-name="Trazado 571501" d="M82.816,31.682c.119-.018.235-.047.354-.062,0-.015,0-.029,0-.044a.963.963,0,0,0-.523.09c.072-.029.144-.059.169.017" transform="translate(-68.468 -26.158)"/>
    <path id="Trazado_571502" data-name="Trazado 571502" d="M83.633,31.9a.205.205,0,0,1,.01.064l.344-.084c0-.014,0-.028,0-.042-.119.015-.236.044-.354.062" transform="translate(-69.285 -26.372)"/>
    <path id="Trazado_571503" data-name="Trazado 571503" d="M82.732,31.989l.045-.016.037-.007c-.025-.075-.1-.046-.169-.017h0l.088.039" transform="translate(-68.466 -26.442)"/>
    <path id="Trazado_571504" data-name="Trazado 571504" d="M83.2,32.2l-.045.016.092.041a.205.205,0,0,0-.01-.064L83.2,32.2" transform="translate(-68.89 -26.672)"/>
    <path id="Trazado_571505" data-name="Trazado 571505" d="M86.212,31.171a.456.456,0,0,0-.516,0,.068.068,0,0,1,.025.032.648.648,0,0,1,.491-.036" transform="translate(-70.994 -25.758)"/>
    <path id="Trazado_571506" data-name="Trazado 571506" d="M85.723,31.439a.034.034,0,0,1,0,.025c-.008.019-.016.029-.024.029.158-.11.346-.051.516-.09h0a.648.648,0,0,0-.491.036" transform="translate(-70.996 -25.99)"/>
    <path id="Trazado_571507" data-name="Trazado 571507" d="M85.7,31.619h0l.022-.012a.069.069,0,0,0-.025-.032h0c0,.015,0,.03,0,.044" transform="translate(-70.993 -26.158)"/>
    <path id="Trazado_571508" data-name="Trazado 571508" d="M85.723,31.785a.034.034,0,0,0,0-.025l-.022.012h0c0,.014,0,.028,0,.042s.016-.01.024-.029" transform="translate(-70.996 -26.311)"/>
    <path id="Trazado_571509" data-name="Trazado 571509" d="M84.234,109.887c-.008.03-.031.043-.089.013.131.095.287.066.432.09a.126.126,0,0,1,.025-.038,2.4,2.4,0,0,1-.368-.065" transform="translate(-69.709 -91.035)"/>
    <path id="Trazado_571510" data-name="Trazado 571510" d="M84.665,109.575a2.394,2.394,0,0,0,.368.065.124.124,0,0,1,.061-.041c-.14-.04-.3.009-.425-.088a.181.181,0,0,1,0,.065" transform="translate(-70.14 -90.722)"/>
    <path id="Trazado_571511" data-name="Trazado 571511" d="M84.233,109.792a.337.337,0,0,1-.036-.016l-.015,0-.039.032h0c.058.03.081.017.089-.013" transform="translate(-69.708 -90.939)"/>
    <path id="Trazado_571512" data-name="Trazado 571512" d="M84.386,109.559c.012.006.024.011.036.016a.181.181,0,0,0,0-.065l-.054.045.015,0" transform="translate(-69.896 -90.722)"/>
    <path id="Trazado_571513" data-name="Trazado 571513" d="M86.69,110.264a.129.129,0,0,0-.025.038l.037-.034-.012,0" transform="translate(-71.797 -91.347)"/>
    <path id="Trazado_571514" data-name="Trazado 571514" d="M86.81,110.065l.012,0,.049-.045a.122.122,0,0,0-.061.041" transform="translate(-71.917 -91.148)"/>
    <path id="Trazado_571515" data-name="Trazado 571515" d="M104.692,109.83c0,.006,0,.011,0,.017s-.02.025-.03.025a.719.719,0,0,0,.429-.078.056.056,0,0,1-.02-.04,1.175,1.175,0,0,1-.379.077" transform="translate(-86.706 -90.924)"/>
    <path id="Trazado_571516" data-name="Trazado 571516" d="M105.1,109.5l-.427.086a.052.052,0,0,1,.029.035,1.178,1.178,0,0,0,.379-.077.041.041,0,0,1,0-.016c.006-.019.013-.028.019-.028" transform="translate(-86.712 -90.711)"/>
    <path id="Trazado_571517" data-name="Trazado 571517" d="M107.067,109.712l-.019.007a.056.056,0,0,0,.02.04c0-.016,0-.031,0-.047" transform="translate(-88.683 -90.89)"/>
    <path id="Trazado_571518" data-name="Trazado 571518" d="M107.062,109.5c-.007,0-.013.009-.019.028a.041.041,0,0,0,0,.016l.019-.007C107.063,109.521,107.063,109.508,107.062,109.5Z" transform="translate(-88.678 -90.711)"/>
    <path id="Trazado_571519" data-name="Trazado 571519" d="M104.692,110.216a.023.023,0,0,0,0-.017l-.03,0c0,.014,0,.027,0,.04s.02-.008.03-.025" transform="translate(-86.706 -91.293)"/>
    <path id="Trazado_571520" data-name="Trazado 571520" d="M104.667,110c0,.012,0,.024,0,.036l.03,0a.051.051,0,0,0-.029-.035" transform="translate(-86.709 -91.125)"/>
    <path id="Trazado_571521" data-name="Trazado 571521" d="M83.644,55.693A3.136,3.136,0,0,0,80.5,52.539a3.17,3.17,0,0,0-3.183,3.13A3.215,3.215,0,0,0,80.5,58.862a3.17,3.17,0,0,0,3.144-3.169m-3.165,2.142A2.187,2.187,0,0,1,78.345,55.7a2.136,2.136,0,0,1,2.2-2.135,2.108,2.108,0,0,1,2.071,2.161,2.133,2.133,0,0,1-2.138,2.109" transform="translate(-64.054 -43.525)"/>
    <path id="Trazado_571522" data-name="Trazado 571522" d="M93.794,97.551c.01.383.007.766,0,1.149,0,.27.081.438.385.43a.692.692,0,0,1,.359.079.884.884,0,0,1-.064-.446c-.008-.48.008-.959-.009-1.439-.007-.184-.024-.381-.241-.451a.364.364,0,0,0-.459.2c0,.013-.006.027-.01.04a1.306,1.306,0,0,1,.037.434" transform="translate(-77.672 -80.235)"/>
    <path id="Trazado_571523" data-name="Trazado 571523" d="M93.227,96.179a.364.364,0,0,1,.459-.2c.216.069.233.267.24.451.018.479,0,.959.009,1.439a.882.882,0,0,0,.064.445.552.552,0,0,1,.081.052c0-.662-.007-1.324,0-1.986,0-.261-.06-.484-.33-.574a.5.5,0,0,0-.643.254h0a.4.4,0,0,1,.112.161c0-.013.005-.027.01-.04" transform="translate(-77.132 -79.338)"/>
    <path id="Trazado_571524" data-name="Trazado 571524" d="M93.819,100.409c-.3.008-.388-.16-.385-.43,0-.383.008-.766,0-1.149A1.306,1.306,0,0,0,93.4,98.4a7.278,7.278,0,0,0-.061,1.479c-.009.14,0,.281-.014.42.071.269.282.269.9.246a.409.409,0,0,1-.038-.054.692.692,0,0,0-.359-.079" transform="translate(-77.31 -81.515)"/>
    <path id="Trazado_571525" data-name="Trazado 571525" d="M93.138,99.517c.019-.139,0-.281.014-.421a7.277,7.277,0,0,1,.061-1.479.4.4,0,0,0-.112-.161q0,.7,0,1.4a3.055,3.055,0,0,0,.038.665" transform="translate(-77.128 -80.736)"/>
    <path id="Trazado_571526" data-name="Trazado 571526" d="M98.357,110.641H98.4a.553.553,0,0,0-.081-.052.4.4,0,0,0,.038.054" transform="translate(-81.451 -91.615)"/>
  </g>
</svg>
